<?xml version="1.0" encoding="UTF-8"?>
<svg version="1.1" xmlns="http://www.w3.org/2000/svg" width="834" height="892">
<path d="M0 0 C0.66 0.66 1.32 1.32 2 2 C1.49210937 3.00675781 0.98421875 4.01351563 0.4609375 5.05078125 C-3.29013151 12.65739566 -6.48296319 20.08804407 -8.8125 28.25 C-13.18965503 43.20166819 -20.62145234 57.35683939 -31 69 C-32.34497354 70.69918413 -33.67871577 72.4073305 -35 74.125 C-35.5775 74.87007813 -36.155 75.61515625 -36.75 76.3828125 C-37.1625 76.91648437 -37.575 77.45015625 -38 78 C-34.63185014 77.4145797 -31.87988093 75.97107598 -28.87864685 74.3820343 C-19.53575603 69.4398657 -9.9866352 66.01135908 0.0625 62.8125 C1.59738423 62.31431727 3.13189086 61.81496968 4.66601562 61.31445312 C7.68370802 60.33180614 10.70254702 59.35285602 13.72290039 58.37841797 C14.44389923 58.14580261 15.16489807 57.91318726 15.90774536 57.67352295 C17.85759979 57.04584041 19.80851988 56.42147095 21.75952148 55.79736328 C33.20908687 52.0723308 44.37100058 47.65169762 55.55786133 43.20947266 C58.10704738 42.19915217 60.6605354 41.20041103 63.21484375 40.203125 C63.97957504 39.89586487 64.74430634 39.58860474 65.5322113 39.27203369 C70.3950975 37.38415144 74.79856107 36.45188306 80 36 C78.6068597 39.25301796 77.05039845 41.03386216 74.3125 43.25 C71.52924952 45.60429073 69.04555408 47.97045799 66.6875 50.75 C63.65824743 54.31217663 60.47329981 57.6762604 57.1875 61 C56.70692139 61.49338867 56.22634277 61.98677734 55.73120117 62.49511719 C54.52641615 63.70353687 53.26699457 64.85697339 52 66 C51.34 66 50.68 66 50 66 C50 66.66 50 67.32 50 68 C48.61401367 69.30932617 48.61401367 69.30932617 46.66796875 70.79296875 C45.95801758 71.33719482 45.24806641 71.8814209 44.51660156 72.44213867 C43.36369629 73.30609253 43.36369629 73.30609253 42.1875 74.1875 C41.40213867 74.77829346 40.61677734 75.36908691 39.80761719 75.9777832 C18.58313075 91.82193654 -7.41700067 104.02281836 -33 111 C-46.6897081 114.7360703 -59.35706289 119.50756606 -71.9921875 126.0234375 C-84.28 132 -84.28 132 -88 132 C-88 132.66 -88 133.32 -88 134 C-65.05176741 135.01640794 -44.72867376 130.22427648 -23.05834961 123.12329102 C-7.96360861 118.20594459 6.67917227 116.82097155 22.5 116.6875 C24.21896484 116.64399414 24.21896484 116.64399414 25.97265625 116.59960938 C33.75579815 116.54205486 39.8917077 117.82049464 47 121 C47 122.32 47 123.64 47 125 C45.71996094 125.25910156 45.71996094 125.25910156 44.4140625 125.5234375 C34.0443518 127.8539498 24.42190342 131.43127206 14.54785156 135.34277344 C6.46389944 138.51700075 -1.51817217 141.12448032 -10 143 C-8.88772893 143.93207073 -7.75904974 144.84455317 -6.625 145.75 C-5.99851562 146.26046875 -5.37203125 146.7709375 -4.7265625 147.296875 C2.82103057 152.01141738 11.03849505 153.8334117 19.6875 155.4375 C36.40581712 158.76276778 58.87305322 163.70445248 70 178 C77.34740448 189.32131952 82.50908013 203.38210665 82 217 C78.36362583 216.43504909 76.95975017 215.16577358 74.5625 212.4375 C63.75773562 201.41703251 49.79934657 196.93815959 35.56445312 191.92626953 C33.01816987 191.00656288 30.50771844 190.01967759 28 189 C28.47566406 189.68578125 28.95132812 190.3715625 29.44140625 191.078125 C35.79747297 200.58296142 41.14282849 210.5719243 46.47094727 220.67431641 C49.79135156 226.95709879 53.19527825 233.12238861 57 239.125 C66.8985791 255.26155158 72.66313575 274.01433346 71 293 C69.98046875 295.46484375 69.98046875 295.46484375 69 297 C66.796875 297.046875 66.796875 297.046875 64 296 C62.02374744 293.28705686 60.67993848 290.27763028 59.25 287.25 C54.57398853 277.85023558 49.59710844 268.40499766 42 261 C42.00888245 261.56502228 42.01776489 262.13004456 42.0269165 262.71218872 C42.11700897 268.71687448 42.17638649 274.7213618 42.21972656 280.7265625 C42.23955869 282.95287907 42.26663284 285.17914563 42.30175781 287.40527344 C42.60791488 307.34150127 40.712765 326.04473756 34 344.9375 C33.67 345.92427734 33.34 346.91105469 33 347.92773438 C31.14281892 353.3360488 29.02469704 358.14563132 26 363 C24.68 363 23.36 363 22 363 C20.56288877 360.12577755 20.49669736 357.31377205 20.125 354.125 C18.78223136 342.72691387 18.78223136 342.72691387 15 332 C13.06707348 332.17044778 13.06707348 332.17044778 11 333 C9.5813838 334.90558416 9.5813838 334.90558416 8.54296875 337.34765625 C8.12063965 338.25531738 7.69831055 339.16297852 7.26318359 340.09814453 C5.19651851 344.84580228 3.24220725 349.63285071 1.3125 354.4375 C-5.11306096 370.12086183 -12.92251153 384.70387443 -22 399 C-23.33654867 401.16468471 -24.6698446 403.33138089 -26 405.5 C-26.65355469 406.55703125 -27.30710937 407.6140625 -27.98046875 408.703125 C-29.39782308 411.01694909 -30.79566675 413.33620196 -32.17578125 415.671875 C-32.53349609 416.27064453 -32.89121094 416.86941406 -33.25976562 417.48632812 C-34.25837775 419.15932765 -35.24857563 420.83734124 -36.23828125 422.515625 C-38 425 -38 425 -41 426 C-41.87621094 419.23370441 -42.15686306 412.63176388 -42.125 405.8125 C-42.12306641 404.80888428 -42.12113281 403.80526855 -42.11914062 402.77124023 C-42.07499143 395.14385315 -41.73711518 387.59491894 -41 380 C-41.99 380 -42.98 380 -44 380 C-49.16287553 385.23116549 -52.97710004 391.88520117 -56.6875 398.1875 C-57.19152344 399.03683105 -57.69554687 399.88616211 -58.21484375 400.76123047 C-62.07962835 407.32490704 -65.82400402 413.95395909 -69.5 420.625 C-69.99201904 421.5121167 -70.48403809 422.3992334 -70.9909668 423.31323242 C-73.73767559 428.36078957 -76.02488312 433.41780097 -78.09277344 438.77685547 C-81.09068462 446.12319002 -85.93707932 452.90163489 -92 458 C-92.99 458 -93.98 458 -95 458 C-95.33 447.11 -95.66 436.22 -96 425 C-96.99 425.33 -97.98 425.66 -99 426 C-99.68642921 427.65862508 -100.34905129 429.32713181 -101 431 C-102.42524981 432.97749924 -103.91207291 434.91120768 -105.4375 436.8125 C-109.38882275 441.84271965 -113.20279492 446.94960191 -116.875 452.1875 C-117.55260376 453.1297644 -117.55260376 453.1297644 -118.24389648 454.09106445 C-129.56546339 470.41023121 -135.5797302 494.35752333 -133 514 C-130.55692429 526.28286683 -124.1787466 536.68300963 -114 544 C-105.75157057 548.80560671 -99.44874122 550.20233926 -90 550.25 C-89.00871094 550.270625 -88.01742188 550.29125 -86.99609375 550.3125 C-76.58052573 550.36681848 -67.55858911 547.61448088 -58.125 543.375 C-57.35978027 543.03307617 -56.59456055 542.69115234 -55.80615234 542.33886719 C-47.80335144 538.63755087 -39.99221974 534.06225868 -33.7734375 527.734375 C-32 526 -32 526 -30 526 C-29.731875 525.40832031 -29.46375 524.81664062 -29.1875 524.20703125 C-27.9896976 521.98085245 -26.74063509 520.50763525 -25 518.6875 C-12.38539064 504.39792177 -5.53591326 487.68179669 1 470 C3 471 3 471 3.76196289 473.23730469 C3.9964917 474.20571289 4.23102051 475.17412109 4.47265625 476.171875 C4.73240234 477.22890625 4.99214844 478.2859375 5.25976562 479.375 C5.52466797 480.48875 5.78957031 481.6025 6.0625 482.75 C6.33126953 483.84828125 6.60003906 484.9465625 6.87695312 486.078125 C8.00283648 490.70519673 9.09209258 495.32467617 10 500 C26.65008687 484.55183023 23.8766505 449.55709064 25.52734375 428.24609375 C27.79796325 399.34140836 27.79796325 399.34140836 34 393 C34.99 393 35.98 393 37 393 C37.93544932 395.80634795 38.26525089 398.31532662 38.54492188 401.2434082 C39.51168733 410.99738108 41.47110459 420.70665689 47 429 C47.66 429 48.32 429 49 429 C50.88124382 426.449654 52.47208792 423.76057181 54.12109375 421.0546875 C55.26693467 419.19180268 56.45769401 417.35445426 57.72265625 415.5703125 C61.00308525 410.78265936 62.39341077 406.82631154 63.05859375 401.04296875 C63.13752869 400.38638779 63.21646362 399.72980682 63.29779053 399.05332947 C63.4605986 397.69507143 63.61933378 396.33631907 63.77401733 394.97711182 C64.11265647 392.01437376 64.48693165 389.05631043 64.859375 386.09765625 C65.00238037 384.95635254 65.14538574 383.81504883 65.29272461 382.63916016 C73.08485492 321.69163795 73.08485492 321.69163795 82 310 C83.32 310 84.64 310 86 310 C87.0416103 313.12483091 87.07403774 315.14910849 86.9921875 318.41796875 C86.73207273 333.35344759 87.04145127 346.77112103 92 361 C106.75207185 354.11352398 112.4401695 338.30558527 118.72412109 324.36938477 C126.27613885 307.66407295 134.28653856 292.18124482 146 278 C147.11568359 276.64455078 147.11568359 276.64455078 148.25390625 275.26171875 C152.4600884 270.3641094 157.06988821 266.15167309 162 262 C163.35531917 260.79295951 164.70948955 259.58462784 166.0625 258.375 C174.40956792 251.12793328 183.63889449 244.75740703 195 244 C194.40312566 247.34249629 193.26396123 249.46436342 191 252 C190.34 252 189.68 252 189 252 C188.60554687 253.10988281 188.60554687 253.10988281 188.203125 254.2421875 C186.99742955 257.00589201 185.68514288 258.83246586 183.75 261.125 C177.27266129 269.28511125 173.25100083 278.53807467 169.10620117 288.01757812 C164.00079667 299.64689183 158.19901604 310.91691073 152 322 C169.3239218 313.05026631 183.68625777 302.52032004 198.0625 289.375 C217.49580617 271.89447338 239.4275519 261.86145803 264 253.5 C264.74765625 253.24444336 265.4953125 252.98888672 266.265625 252.72558594 C269.71862659 251.58897291 272.32457154 251 276 251 C276 251.66 276 252.32 276 253 C276.66 253 277.32 253 278 253 C278 253.66 278 254.32 278 255 C280.64 255 283.28 255 286 255 C286 256.32 286 257.64 286 259 C284.8140625 259.40089844 283.628125 259.80179687 282.40625 260.21484375 C273.99667051 263.13680148 265.89980209 266.25581916 258.125 270.625 C257.47853516 270.98456787 256.83207031 271.34413574 256.16601562 271.71459961 C252.17965239 274.03523249 249.17456249 276.68113921 246 280 C244.14418429 281.56470737 242.26896743 283.10669553 240.375 284.625 C236.69701811 287.55091689 236.69701811 287.55091689 233.2890625 290.7734375 C232 292 232 292 230 292 C230 292.99 230 293.98 230 295 C230.99 294.67 231.98 294.34 233 294 C235.41644358 293.88139929 237.80902455 293.81427316 240.2265625 293.7890625 C241.73194489 293.76293115 243.23731571 293.73612685 244.74267578 293.70874023 C245.93524994 293.68878494 245.93524994 293.68878494 247.1519165 293.66842651 C260.54734858 293.43320724 273.79771174 292.80791935 287.125 291.4375 C297.33461043 290.40601044 307.48126586 289.68320626 317.75 289.625 C318.80203613 289.61138428 319.85407227 289.59776855 320.93798828 289.58374023 C335.07016737 289.66641767 345.46093228 293.384497 356.56640625 301.98828125 C366.43102139 309.55948363 377.43295923 313.71543429 389 318 C389 318.99 389 319.98 389 321 C388.36320313 320.9278125 387.72640625 320.855625 387.0703125 320.78125 C370.65191347 319.21344532 353.87136099 319.13425946 337.53125 321.421875 C331.52487647 322.2439764 325.4798066 322.65821964 319.4375 323.125 C318.31077881 323.21249512 317.18405762 323.29999023 316.02319336 323.39013672 C313.3489827 323.59602049 310.67461472 323.7994442 308 324 C313.64304008 326.62768141 319.24302753 328.79893815 325.1875 330.625 C353.14971581 339.67081952 390.45720902 355.07959784 405 382 C408.34564885 389.70206774 410.16517718 396.57596384 410 405 C406.09282835 404.32830705 403.18735999 402.45925083 399.8125 400.4375 C394.38161842 397.23905554 388.85382609 394.43763475 383.125 391.8125 C377.46884146 389.21899052 372.15851572 386.51218092 367 383 C370.37430122 391.79094265 375.50752107 399.33696495 381.1328125 406.84765625 C388.13318123 416.36966318 392.86085876 426.72567757 397.79443359 437.42333984 C399.28838131 440.6163581 400.88029089 443.74409827 402.5 446.875 C408.37974421 458.63448843 409.79659303 470.67463459 410.6875 483.6875 C410.73600098 484.37078369 410.78450195 485.05406738 410.83447266 485.75805664 C411.01787006 488.86059434 410.99406788 491.01779637 410 494 C407.00284844 493.68397381 405.42910683 493.44288549 403.296875 491.2421875 C402.53117188 490.07042969 402.53117188 490.07042969 401.75 488.875 C401.15960937 487.97652344 400.56921875 487.07804687 399.9609375 486.15234375 C394.41195691 477.23197056 388.9880221 468.2491465 384 459 C384.94526681 466.87307747 386.09397539 474.66794475 387.52148438 482.46826172 C389.38243236 492.68164141 390.80469948 502.60193069 391 513 C391.02046387 513.90363281 391.04092773 514.80726563 391.06201172 515.73828125 C391.9472304 560.39427162 391.9472304 560.39427162 379 576 C378.01 576 377.02 576 376 576 C375.92483154 575.31075439 375.84966309 574.62150879 375.7722168 573.91137695 C373.86566255 555.78326632 373.86566255 555.78326632 370 538 C369.34 538 368.68 538 368 538 C367.9071875 539.16144531 367.814375 540.32289063 367.71875 541.51953125 C367.14179287 546.07609023 365.61887657 549.64736752 363.5 553.6875 C363.14397705 554.37956543 362.7879541 555.07163086 362.42114258 555.78466797 C358.83244854 562.59294217 354.63757477 568.856267 350 575 C349.56252441 575.58023926 349.12504883 576.16047852 348.67431641 576.75830078 C342.8069307 584.48205808 336.73712153 592.01055182 330 599 C329.41476562 599.61101563 328.82953125 600.22203125 328.2265625 600.8515625 C301.77934487 626.14387979 257.36932558 629.6989341 222.9375 630.5 C212.75652329 630.73746436 203.03018836 631.18755938 193.09326172 633.515625 C190.69589659 634.07036869 188.28877732 634.56497823 185.87890625 635.0625 C171.30643064 638.17700692 157.89201639 642.42540567 145.91796875 651.6171875 C144 653 144 653 141 654 C139.88744732 655.870601 139.88744732 655.870601 139 658 C138.34 659.0725 137.68 660.145 137 661.25 C130.36137438 674.52725123 131.7544341 694.38545973 136 708 C140.5878011 718.19047941 147.81694312 725.44491725 158 730 C168.9156096 733.33414535 182.78689533 730.13542576 192.84375 725.24609375 C195.94821728 723.57149935 198.97794577 721.81770966 202 720 C203.10408203 719.52433594 203.10408203 719.52433594 204.23046875 719.0390625 C206.51446779 717.69790633 206.96046482 716.4033698 208 714 C212.2747536 707.04276679 217.7948933 704.45562347 225.07788086 701.5090332 C232.83289896 698.35078694 238.17249089 693.97319684 244 688 C245.27622422 686.77536782 246.56929218 685.56814681 247.875 684.375 C248.49117187 683.80523438 249.10734375 683.23546875 249.7421875 682.6484375 C255.45485971 678.47759378 261.18019894 677.39278689 268.0625 676.75 C269.29963745 676.6255249 269.29963745 676.6255249 270.56176758 676.49853516 C277.81211526 675.8519716 284.76527917 676.12664055 292 677 C292 678.32 292 679.64 292 681 C290.0234375 682.89453125 290.0234375 682.89453125 287.375 684.8125 C278.9324813 691.2748212 273.72975858 699.14359651 268 708 C276.07498621 705.59896589 284.00785272 702.97644905 291.90625 700.05078125 C303.06558429 696.26055281 317.95487218 695.56832943 328.8034668 700.45751953 C335.72158707 704.04730851 341.47089585 708.50427073 347 714 C348.34757108 715.15358292 349.70169279 716.29956102 351.0625 717.4375 C355.45625917 721.25662266 359.22853401 725.57655185 363 730 C362.67 730.99 362.34 731.98 362 733 C359.48635178 731.99994641 356.98043937 730.99165169 354.4921875 729.9296875 C343.21459947 725.38498785 332.53667005 726.31130155 321 730 C319.25246717 731.51119162 319.25246717 731.51119162 318 733 C317.34 733 316.68 733 316 733 C316 733.99 316 734.98 316 736 C316.54140625 736.21011719 317.0828125 736.42023437 317.640625 736.63671875 C331.15333034 744.44455677 341.06529142 763.07227086 345.74609375 777.26171875 C350.14466606 794.15830343 345.32054577 816.42367777 336.62890625 831.35546875 C333.19412319 836.31682206 328.93950981 839.62133722 324 843 C322.70817726 843.95812293 321.41650086 844.91644323 320.125 845.875 C317 848 317 848 315 848 C315.48578543 844.87709365 315.9986012 842.00419641 317 839 C318.54902202 826.54082188 317.93668487 814.3563696 316 802 C311.83690187 805.57796222 309.66147891 809.91864717 307.125 814.6875 C304.09480866 820.26488888 301.06050771 825.72875157 297.4140625 830.93359375 C296.35863192 832.47592186 295.3623871 834.05905948 294.3984375 835.66015625 C279.50469425 860.38104972 250.21507361 876.56129911 222.8515625 883.625 C203.63427593 888.3676057 183.98100733 892.24164528 164.25 888.5625 C162.87473145 888.31004517 162.87473145 888.31004517 161.47167969 888.05249023 C148.9332765 885.58951603 136.73646366 881.73135705 124.51416016 878.05126953 C119.83533549 876.65158779 115.14217027 875.30981156 110.4375 874 C109.74881836 873.8047876 109.06013672 873.6095752 108.35058594 873.40844727 C87.53888364 867.61711136 65.14318289 870.36838631 44.74023438 876.22607422 C40.66706612 877.37646119 36.5585825 878.35108324 32.4375 879.3125 C31.17808594 879.61800781 29.91867187 879.92351563 28.62109375 880.23828125 C20.89716071 881.86305681 13.24271245 882.26194545 5.375 882.5625 C4.30830078 882.6035083 3.24160156 882.6445166 2.14257812 882.68676758 C-0.90475173 882.79861107 -3.95220229 882.90182016 -7 883 C-7.73186523 883.02481445 -8.46373047 883.04962891 -9.21777344 883.07519531 C-18.63345009 883.36081224 -27.70582795 882.35187957 -37 881 C-37.33 880.01 -37.66 879.02 -38 878 C-36.72125 877.731875 -35.4425 877.46375 -34.125 877.1875 C-32.41506664 876.79863665 -30.70677642 876.40249354 -29 876 C-28.21882813 875.81695313 -27.43765625 875.63390625 -26.6328125 875.4453125 C-16.48243585 872.7496387 -7.2915124 867.3632537 1 861 C-9.57719005 851.48252842 -26.17828389 852.14589074 -39.57519531 852.82861328 C-66.89763759 854.75978067 -96.78841692 872.0116771 -115 892 C-115.66 891.67 -116.32 891.34 -117 891 C-115.96419702 882.28070325 -113.7052751 874.94142294 -110 867 C-109.64164062 866.16855469 -109.28328125 865.33710937 -108.9140625 864.48046875 C-100.15209964 845.24764957 -83.09387018 829.30273047 -63.4375 821.75 C-55.48453699 818.854877 -47.25856741 817.00414152 -39.0078125 815.17578125 C-33.92662592 814.03246408 -28.96733669 812.5593279 -24 811 C-38.16995232 801.55336512 -57.13038341 802.36156817 -73.02392578 805.53808594 C-75.74502681 806.17415255 -78.35428474 807.1064909 -81 808 C-84.375 808.125 -84.375 808.125 -87 808 C-84.87554826 803.27085896 -81.50852433 800.17835155 -77.875 796.5625 C-77.235625 795.90701172 -76.59625 795.25152344 -75.9375 794.57617188 C-65.59225793 784.22054302 -53.72355358 779.66241437 -39.125 779.5 C-30.32387715 779.59692045 -22.37488951 781.45220483 -14 784 C-12.66968606 784.37906444 -11.33895353 784.75666284 -10.0078125 785.1328125 C6.67407158 789.96472236 21.77641518 797.75721693 37 806 C31.88701109 796.82562983 26.90197207 789.07662102 19 782 C17.97200319 780.98638077 16.94974332 779.96685166 15.9375 778.9375 C14.9784375 777.9784375 14.9784375 777.9784375 14 777 C19.11057966 774.44471017 26.61860039 776.01497273 31.98291016 777.57763672 C46.3563368 782.67215079 58.67350767 791.16574758 69.16137695 802.10522461 C74.93167099 808.09206972 81.283265 813.11775161 88 818 C88.59538574 818.43441406 89.19077148 818.86882813 89.80419922 819.31640625 C116.45427514 838.51076354 151.78041119 850.54358837 184.80078125 846.5390625 C194.33823223 844.82695409 203.08298691 841.67296523 212 838 C213.04003174 837.58161865 213.04003174 837.58161865 214.10107422 837.15478516 C231.07793004 830.29580598 249.91818314 818.73207387 258.16796875 801.5703125 C262.56558242 791.12399556 265.09005945 781.00720954 261.0546875 770.015625 C258.84327943 765.78937847 255.50818551 763.5027285 251 762 C238.68262831 761.03415688 228.34710613 763.01282928 216.6875 766.8125 C214.50834898 767.49790362 212.32714485 768.17647841 210.14581299 768.85490417 C208.73629157 769.29387546 207.32753988 769.73532694 205.9196167 770.17939758 C173.79532274 780.26179647 142.09600704 779.28605771 111.98828125 763.6484375 C111.00214844 763.10445312 110.01601563 762.56046875 109 762 C108.04480469 761.47664062 107.08960938 760.95328125 106.10546875 760.4140625 C105.41066406 759.94742188 104.71585938 759.48078125 104 759 C104 758.34 104 757.68 104 757 C103.34 756.79375 102.68 756.5875 102 756.375 C97.92819814 754.50875748 94.31203002 752.02438473 91 749 C91 748.34 91 747.68 91 747 C90.40703125 746.72671875 89.8140625 746.4534375 89.203125 746.171875 C80.59020438 741.59053425 76.34478868 732.29449596 72 724 C71.65404785 723.35554932 71.3080957 722.71109863 70.95166016 722.04711914 C61.19081127 703.36797022 60.42028513 676.33777107 66.4765625 656.37890625 C66.97187288 654.91498114 67.4813102 653.45580561 68 652 C68.34385742 651.03046387 68.68771484 650.06092773 69.04199219 649.06201172 C73.46294563 636.87576621 77.93464935 625.25386135 86 615 C86.80328971 613.92113403 87.60393903 612.84029855 88.40234375 611.7578125 C93.56026723 604.82948289 99.05485662 598.26875149 105 592 C105.48388184 591.47825195 105.96776367 590.95650391 106.46630859 590.41894531 C124.165153 571.42105287 145.35800644 558.5581069 169.375 549.0625 C170.53950684 548.60149902 171.70401367 548.14049805 172.90380859 547.66552734 C189.49924254 541.2932018 205.16757927 538.80069064 222.9375 540.5 C240.17715188 542.07566711 256.35413427 541.3717804 271 531 C288.83861261 514.2579138 292.37635349 485.42715669 293.3125 462.0625 C292.93560104 447.21268082 289.51024073 433.45988863 279.70703125 422.12890625 C278 420 278 420 277 417 C275.6925938 416.28382178 274.35143776 415.62915674 273 415 C271.50895661 413.9617769 270.01835798 412.9228891 268.53271484 411.87695312 C260.17960334 406.10114284 251.80621903 403.37213074 242 401 C241.02812744 400.73497681 241.02812744 400.73497681 240.03662109 400.46459961 C223.28127175 396.6423232 208.1139596 401.98075669 193.9375 410.5 C176.41241131 421.66497045 162.55710639 437.93414296 152.24951172 455.83105469 C150.71116626 458.50136751 149.15344664 461.16012649 147.59765625 463.8203125 C137.87901668 480.49858204 128.26510611 497.26240288 119.6875 514.5625 C119.36547607 515.2114624 119.04345215 515.8604248 118.71166992 516.52905273 C117.29020876 519.39665447 115.86910386 522.26442998 114.44921875 525.1328125 C102.73346105 547.86661528 86.45858197 568.59710229 70.33886719 588.35693359 C69.07650154 589.90611682 67.82310891 591.46259938 66.5703125 593.01953125 C51.69519534 611.42041148 35.36503109 628.32072933 16 642 C15.40751465 642.42651855 14.8150293 642.85303711 14.20458984 643.29248047 C-0.76708658 654.0156098 -17.25281068 663.12397268 -33.9375 670.875 C-34.61530518 671.20258301 -35.29311035 671.53016602 -35.99145508 671.86767578 C-45.63723881 676.14222698 -55.8267712 673.56721582 -65.875 672 C-74.76389906 670.69420312 -83.50637693 669.61135003 -92.5 669.625 C-93.29905762 669.62371094 -94.09811523 669.62242187 -94.92138672 669.62109375 C-99.02392221 669.69997143 -102.30955293 670.1694211 -106 672 C-103.52121749 676.95756502 -100.30107615 679.66717113 -95.12792969 681.75585938 C-93.07748549 682.43900292 -91.01966283 683.04584597 -88.9375 683.625 C-88.19814209 683.84027344 -87.45878418 684.05554688 -86.69702148 684.27734375 C-80.99396638 685.87889083 -75.35360452 686.77643218 -69.44140625 687.25 C-68.63574219 687.4975 -67.83007812 687.745 -67 688 C-65.65234375 690.5625 -65.65234375 690.5625 -65 693 C-73.54019445 701.77742207 -80.03051825 703.23269573 -92 703.5625 C-98.07394224 703.75435167 -104.0012444 703.99187579 -110 705 C-109.53511531 713.43862707 -109.53511531 713.43862707 -106 721 C-102.25800627 724.06163123 -97.80485642 725.03379372 -93.20703125 726.25390625 C-91 727 -91 727 -89 729 C-89 729.99 -89 730.98 -89 732 C-101.55479693 735.65230456 -113.87138586 735.0792531 -126.11523438 730.77905273 C-134.31100372 727.94586005 -140.58462442 729.0055969 -148.80126953 731.20263672 C-154.12091546 732.52869103 -159.51615748 733.27693874 -164.9375 734.0625 C-166.01451172 734.22298828 -167.09152344 734.38347656 -168.20117188 734.54882812 C-169.27818359 734.70931641 -170.35519531 734.86980469 -171.46484375 735.03515625 C-173.07528564 735.27673462 -173.07528564 735.27673462 -174.71826172 735.52319336 C-176.94102674 735.84614084 -179.16687273 736.14843937 -181.39501953 736.43188477 C-188.18108872 737.34290888 -193.88490293 738.73174426 -200 741.8125 C-200.71027344 742.14314453 -201.42054688 742.47378906 -202.15234375 742.81445312 C-206.506733 744.92677789 -209.96076818 747.12379223 -213 751 C-214.10388158 755.73092105 -211.45633013 759.4526294 -209.25 763.5 C-202.76470928 775.95730557 -199.34067447 786.84164946 -202.171875 800.76171875 C-205.461757 809.65371113 -212.98223161 813.09800499 -221 817 C-231.36724995 821.61185543 -231.36724995 821.61185543 -236 820 C-234.86201584 816.92744276 -233.76722759 815.81783029 -231.125 813.75 C-226.26476188 809.85466209 -224.28708425 805.22490292 -223.5 799.125 C-223.96257666 791.2611967 -227.82649177 784.63825428 -232.73046875 778.69140625 C-234 777 -234 777 -235 774 C-236.31719929 773.30199696 -237.65337955 772.63940252 -239 772 C-240.27677848 770.86270152 -241.52586854 769.69378109 -242.75 768.5 C-251.47719098 760.79577646 -265.08353475 761.68663174 -276.140625 762.234375 C-278.51114577 762.39588301 -280.88098227 762.56776787 -283.25 762.75 C-284.43851563 762.82476563 -285.62703125 762.89953125 -286.8515625 762.9765625 C-293.9457941 763.49336083 -300.29369963 764.63639805 -307 767 C-307.99 767.309375 -308.98 767.61875 -310 767.9375 C-312.52789296 769.28044314 -312.8177835 770.43316417 -314 773 C-314.34160156 773.62777344 -314.68320312 774.25554688 -315.03515625 774.90234375 C-318.27903503 781.32843061 -319.56890627 787.79977998 -319 795 C-317.95644479 797.67794683 -316.76164926 799.83740025 -315.12890625 802.1953125 C-314 804 -314 804 -314 807 C-320.48186757 806.72417585 -325.09109414 804.23472137 -330 800 C-330.495 798.515 -330.495 798.515 -331 797 C-331.66 797 -332.32 797 -333 797 C-339.43738097 788.30603712 -341.97851041 779.74808265 -341 769 C-340.38246813 766.07321028 -339.40443772 763.63535418 -338 761 C-337.65582031 760.33226562 -337.31164062 759.66453125 -336.95703125 758.9765625 C-332.5566261 751.90883485 -325.29365869 749.27385816 -318 746 C-316.3702901 745.19698887 -314.74417607 744.38654496 -313.125 743.5625 C-312.09375 743.046875 -311.0625 742.53125 -310 742 C-316.27389819 737.40934279 -322.07915246 735.26539703 -329.9296875 736.26171875 C-336.25214789 737.78200503 -342.14456635 740.48919087 -348.05859375 743.14941406 C-349.6825043 743.860896 -351.33853279 744.49846404 -353 745.1171875 C-362.63415114 749.00095468 -366.92103693 758.46606832 -372 767 C-373.4765625 765.91796875 -373.4765625 765.91796875 -375 764 C-375.9421646 756.73055349 -376.10356943 748.34944189 -372 742 C-361.33064758 728.76791097 -345.96088241 720.20932628 -329.21435547 718.16650391 C-322.80552264 717.6846049 -316.37578674 718.34506151 -310 719 C-311.39515569 716.97869601 -312.79112835 714.95796373 -314.1875 712.9375 C-314.59734131 712.34348389 -315.00718262 711.74946777 -315.42944336 711.13745117 C-317.60011986 707.99754636 -319.79929772 704.88679212 -322.0625 701.8125 C-324 699 -324 699 -324 697 C-324.85851562 696.79890625 -324.85851562 696.79890625 -325.734375 696.59375 C-328 696 -328 696 -330.015625 695.28125 C-336.26662459 693.09558581 -342.16240005 692.55647521 -348.72949219 692.37890625 C-350.48980088 692.31776673 -352.24653559 692.16669517 -354 692 C-354.33 691.34 -354.66 690.68 -355 690 C-348.67289191 682.09111489 -337.74294765 679.15273125 -328 678 C-313.81658674 676.4453257 -300.12266838 682.01854964 -289.01953125 690.515625 C-283.53521918 695.48539063 -279.90521254 702.08817596 -276.04589844 708.33007812 C-274.17454378 711.3179553 -272.17927108 714.22180817 -270.19140625 717.1328125 C-269 719 -269 719 -267.9609375 721.171875 C-266.71008014 723.55155486 -265.4354882 723.96676258 -263 725 C-262.01 725.66 -261.02 726.32 -260 727 C-248.40803143 728.22020722 -238.12432097 721.16639796 -228.12304688 716.07324219 C-226.0108547 715.00548726 -223.89029454 713.9567426 -221.765625 712.9140625 C-201.66401046 703.64331094 -201.66401046 703.64331094 -188 687 C-187.08743691 683.52894948 -187.08743691 683.52894948 -187 680 C-186.87625 678.700625 -186.7525 677.40125 -186.625 676.0625 C-186.76054115 671.02811446 -188.6630045 667.70001593 -192 664 C-198.27362537 658.58782766 -205.20288815 654.18337632 -212.21484375 649.8046875 C-221.15655134 644.01076197 -229.24342504 637.28029404 -237 630 C-237.59039062 629.48566406 -238.18078125 628.97132813 -238.7890625 628.44140625 C-256.63475779 612.16038093 -266.03640998 586.79947252 -268.92480469 563.38183594 C-269.51173465 558.90863184 -270.28098441 555.7480353 -273 552 C-277.0948163 552.45497959 -279.38928525 552.74402336 -282 556 C-284.07220743 561.51849892 -284.92755566 568.16812707 -284 574 C-283.10491243 575.99421499 -283.10491243 575.99421499 -281.9375 577.8125 C-280 581 -280 581 -280.25 583.4375 C-280.62125 584.2109375 -280.62125 584.2109375 -281 585 C-287.84288287 583.04489061 -292.85470637 580.06156172 -296.83203125 574.140625 C-299.24717466 569.71420831 -302 564.11525765 -302 559 C-302.66 559 -303.32 559 -304 559 C-303.67 560.65 -303.34 562.3 -303 564 C-303.99 564 -304.98 564 -306 564 C-306 563.34 -306 562.68 -306 562 C-306.66 562 -307.32 562 -308 562 C-308.23074219 561.34773437 -308.46148437 560.69546875 -308.69921875 560.0234375 C-310.7838032 554.43708076 -312.89547701 550.33255205 -317 546 C-317.29132813 546.6290625 -317.58265625 547.258125 -317.8828125 547.90625 C-322.23171657 556.98698051 -326.63160335 565.25827101 -336.51953125 568.9375 C-344.93863456 571.46210394 -354.95680642 572.19662135 -363.375 569.13671875 C-365 568 -365 568 -366 565 C-365.18525401 562.63575528 -364.30826264 560.41093719 -363.3125 558.125 C-357.24679728 543.52962299 -353.91592142 529.47581524 -353.6875 513.625 C-353.66977539 512.88805908 -353.65205078 512.15111816 -353.63378906 511.3918457 C-353.64892527 500.20492739 -359.30172342 492.68725477 -367.01953125 484.984375 C-375.47512848 477.31262998 -384.96636938 471.13341071 -396.7421875 471.6015625 C-400.54916667 472.27338235 -401.81359439 473.87656342 -404 477 C-407.89808732 483.37464993 -409.41275967 488.60077189 -410 496 C-410.66 496.33 -411.32 496.66 -412 497 C-414.84140676 492.73788986 -415.51268285 488.26942498 -416.625 483.3125 C-416.85445313 482.34376953 -417.08390625 481.37503906 -417.3203125 480.37695312 C-419.29759824 471.67336502 -420.22551039 464.16368608 -416 456 C-413.14065382 451.50819022 -409.92818763 449.00927276 -405 447 C-402.16560746 446.66089022 -399.6387321 446.47712325 -396.8125 446.5 C-396.06943604 446.50064453 -395.32637207 446.50128906 -394.56079102 446.50195312 C-387.93232703 446.6798407 -382.68554561 448.56165708 -377 452 C-378.12187598 442.43600723 -384.1954884 434.74404522 -391.48828125 428.7265625 C-399.44787601 423.25511478 -407.3820386 420.89266892 -417 422 C-418.34045832 422.30341455 -419.67736258 422.62647739 -421 423 C-423.48386059 419.27420911 -423.3804212 417.41288598 -423 413 C-421.61736373 409.62022244 -420.5001418 408.30921941 -417.390625 406.38671875 C-413.46623457 404.78169732 -410.04875641 404.50268652 -405.875 404.5625 C-404.74795654 404.57494751 -404.74795654 404.57494751 -403.59814453 404.58764648 C-396.84288292 404.79040535 -391.19807976 406.28586008 -385 409 C-384.06679932 409.39396973 -384.06679932 409.39396973 -383.11474609 409.79589844 C-381.08767581 410.65598707 -379.07347018 411.54045197 -377.0625 412.4375 C-376.43520996 412.71343994 -375.80791992 412.98937988 -375.16162109 413.27368164 C-369.03644591 416.13511947 -365.2907098 420.19819635 -361.6875 425.8125 C-361.17574219 426.60269531 -360.66398437 427.39289063 -360.13671875 428.20703125 C-359.57404297 429.09455078 -359.57404297 429.09455078 -359 430 C-358.30068748 409.87567306 -358.30068748 409.87567306 -366 392 C-374.23792239 384.60242208 -381.70384074 380.8048682 -392.7421875 380.30859375 C-393.48726563 380.20675781 -394.23234375 380.10492188 -395 380 C-395.33 379.34 -395.66 378.68 -396 378 C-394.48105765 377.37041826 -392.95972805 376.74659536 -391.4375 376.125 C-390.59058594 375.77695312 -389.74367188 375.42890625 -388.87109375 375.0703125 C-379.12869796 371.43845339 -366.95745913 368.69685575 -356.98046875 372.87109375 C-347.65988458 378.18401056 -341.31637295 387.35163694 -337 397 C-336.70276733 390.85719148 -337.3374752 386.13851837 -339.265625 380.30859375 C-340.13673963 377.57014296 -340.62548584 374.84630762 -341 372 C-337.98940773 372.31513995 -337.07756808 372.912254 -335.03515625 375.22265625 C-334.05869141 376.62837891 -334.05869141 376.62837891 -333.0625 378.0625 C-332.36898437 379.05765625 -331.67546875 380.0528125 -330.9609375 381.078125 C-326.01236667 388.45169269 -326.01236667 388.45169269 -324 392 C-323.47148437 392.88558594 -322.94296875 393.77117187 -322.3984375 394.68359375 C-320.6412292 398.85082797 -320.4240148 402.26841903 -320.4375 406.75 C-320.43991699 407.61125488 -320.44233398 408.47250977 -320.44482422 409.35986328 C-320.87472014 425.22667559 -326.05410606 440.69939429 -330.3125 455.875 C-334.71046943 470.02419309 -334.71046943 470.02419309 -332 484 C-329.57920582 486.74792853 -327.07634246 488.94062253 -324.1875 491.1875 C-323.465625 491.785625 -322.74375 492.38375 -322 493 C-322 493.66 -322 494.32 -322 495 C-321.33613281 495.24621094 -320.67226563 495.49242187 -319.98828125 495.74609375 C-317.67109695 496.71840246 -315.51086371 497.74405814 -313.29296875 498.91015625 C-312.2884668 499.43512695 -312.2884668 499.43512695 -311.26367188 499.97070312 C-309.88710561 500.69459827 -308.51461812 501.42630695 -307.14648438 502.16601562 C-301.59214212 505.04151721 -296.53161064 506.7606546 -290.20703125 505.3984375 C-285.08572505 503.20955948 -281.69703771 501.15916742 -278 497 C-277.34 497 -276.68 497 -276 497 C-275.72816895 496.12230957 -275.45633789 495.24461914 -275.17626953 494.34033203 C-274.07134344 491.20259877 -272.75316975 488.47849608 -271.1796875 485.5546875 C-267.97369552 479.25352316 -265.81690567 472.81595326 -263.73220825 466.07385254 C-260.24777443 454.89046088 -256.4772967 444.84212615 -250 435 C-249.1752914 433.57377909 -248.35948227 432.1423894 -247.55078125 430.70703125 C-241.82348016 420.66347235 -235.38321013 412.33651247 -227.19921875 404.19335938 C-225.10725748 402.10697172 -223.035869 400.00156503 -220.96940613 397.88995361 C-218.54931433 395.41950903 -216.11837655 392.95982468 -213.6875 390.5 C-212.30921021 389.10152832 -212.30921021 389.10152832 -210.90307617 387.67480469 C-205.55453673 382.3219188 -200.08557917 377.4927708 -194 373 C-193.08734375 372.28714844 -192.1746875 371.57429688 -191.234375 370.83984375 C-167.91286927 352.98202411 -142.3048833 337.88421698 -115.9375 325 C-83.31212858 309.98971613 -83.31212858 309.98971613 -62 283 C-57.52110725 266.99403445 -57.49340297 249.93915381 -65.5625 235.0625 C-67.98184507 230.22356546 -67.98184507 230.22356546 -72.125 227.3125 C-72.74375 227.209375 -73.3625 227.10625 -74 227 C-75.0270863 231.38845966 -75.17634023 234.07428407 -73.5625 238.3125 C-71.50850037 243.84031466 -70.63606591 249.69003442 -72.93359375 255.265625 C-76.35985832 258.14135557 -80.11432286 257.5430664 -84.4375 257.4375 C-85.35877686 257.4271875 -86.28005371 257.416875 -87.22924805 257.40625 C-96.95424695 257.18141365 -106.44309023 255.72455515 -116 254 C-116 254.66 -116 255.32 -116 256 C-115.23042969 256.3403125 -115.23042969 256.3403125 -114.4453125 256.6875 C-111.04758358 258.51120114 -107.99846459 260.74595339 -104.875 263 C-103.92560547 263.67675781 -103.92560547 263.67675781 -102.95703125 264.3671875 C-100.49057575 266.13717043 -98.15041914 267.84958086 -96 270 C-96 271.32 -96 272.64 -96 274 C-111.11001202 279.03667067 -130.81821965 271.69312157 -145.24609375 266.796875 C-159.19680344 262.7600739 -172.65124443 268.66844469 -185 275 C-189.47684481 277.47175166 -193.75371544 280.15213127 -198 283 C-198.61746094 283.41217773 -199.23492187 283.82435547 -199.87109375 284.24902344 C-201.80018464 285.54640499 -203.71487269 286.86238319 -205.625 288.1875 C-206.21748535 288.59137939 -206.8099707 288.99525879 -207.42041016 289.41137695 C-210.89581314 291.8798922 -213.31233427 294.05195886 -215 298 C-215.15127416 300.67835235 -215.15127416 300.67835235 -214.6875 303.3125 C-214.56761719 304.19550781 -214.44773438 305.07851563 -214.32421875 305.98828125 C-214.16373047 306.98408203 -214.16373047 306.98408203 -214 308 C-217.27924407 309.93897212 -219.85533219 310.29325528 -223.640625 310.4140625 C-224.71054688 310.45273437 -225.78046875 310.49140625 -226.8828125 310.53125 C-228.54957031 310.57765625 -228.54957031 310.57765625 -230.25 310.625 C-231.37664062 310.66367187 -232.50328125 310.70234375 -233.6640625 310.7421875 C-236.44254548 310.83637336 -239.22102334 310.92199586 -242 311 C-239.76637908 315.98920859 -237.72238483 319.82238821 -233.4375 323.375 C-232.29087891 324.34566406 -232.29087891 324.34566406 -231.12109375 325.3359375 C-228.90107059 327.12167776 -228.90107059 327.12167776 -226 329 C-226 329.66 -226 330.32 -226 331 C-225.34 331 -224.68 331 -224 331 C-223.67 332.32 -223.34 333.64 -223 335 C-229.04213884 338.71138749 -237.34572904 337.83417858 -244.01171875 336.3125 C-259.37848374 331.0514107 -269.4727958 320.79034448 -279 308 C-279.33 307.67 -279.66 307.34 -280 307 C-279.39913646 315.03654985 -277.49351287 319.49738256 -271.6796875 325.125 C-270 327 -270 327 -270 330 C-280.58775812 328.76198989 -292.22306242 325.86169984 -300 318 C-304.89601832 310.64848626 -305.18144499 303.40455934 -305.1875 294.8125 C-305.19974609 293.91724609 -305.21199219 293.02199219 -305.22460938 292.09960938 C-305.23804138 285.89849925 -304.6631772 279.9943518 -303 274 C-302 273 -302 273 -299.0625 272.75 C-295.95527908 272.7749576 -293.59365047 273.4340763 -290.6875 274.5 C-275.40532237 279.40712126 -260.05167998 275.36244757 -246.28198242 268.33935547 C-233.3807473 261.61335038 -233.3807473 261.61335038 -221 254 C-220.01 254 -219.02 254 -218 254 C-218 253.34 -218 252.68 -218 252 C-217.3915625 251.68289062 -216.783125 251.36578125 -216.15625 251.0390625 C-210.18997066 247.86289614 -204.37859609 244.4825515 -198.625 240.9375 C-197.94759766 240.5264502 -197.27019531 240.11540039 -196.57226562 239.69189453 C-192.50968775 237.16234592 -189.24866708 234.51834408 -186 231 C-187.88349834 227.42135315 -189.11451127 225.33216756 -193 224 C-209.96486897 220.05468164 -225.68817886 226.33274616 -241 233 C-241.72638672 233.31163086 -242.45277344 233.62326172 -243.20117188 233.94433594 C-253.42488936 238.35978251 -262.09749549 243.76360283 -270.6875 250.875 C-274.87897801 254.2801594 -279.25888281 257.15480145 -283.875 259.9375 C-284.51783936 260.32728027 -285.16067871 260.71706055 -285.82299805 261.11865234 C-288.81526641 262.88529073 -291.53772844 264.45195199 -295 265 C-297.13281436 260.98529062 -296.82703926 258.40416214 -296.09375 253.99609375 C-295.94508215 250.83070742 -297.41903474 248.65602164 -299 246 C-299 245.34 -299 244.68 -299 244 C-299.680625 243.731875 -300.36125 243.46375 -301.0625 243.1875 C-304.39710809 241.83946694 -307.69743237 240.42463702 -311 239 C-311.495 239.94875 -311.99 240.8975 -312.5 241.875 C-315.40717259 246.94952707 -318.90484287 251.8207534 -323 256 C-323.99 256 -324.98 256 -326 256 C-326.32355469 255.01644531 -326.64710938 254.03289062 -326.98046875 253.01953125 C-329.57377226 246.9745666 -334.85382916 242.97646103 -339.57617188 238.58007812 C-345.90899501 232.51413428 -352.91234537 224.85322434 -353.35546875 215.61328125 C-351.81100914 204.25895727 -345.9002131 194.69377925 -337.16796875 187.48828125 C-326.88679506 180.28063738 -314.19909313 178.58089525 -302 180 C-293.33654348 182.32999351 -287.59768317 190.43972458 -282 197 C-278.03871539 195.44491284 -274.08156007 193.87956452 -270.125 192.3125 C-269.01640625 191.87744141 -267.9078125 191.44238281 -266.765625 190.99414062 C-254.80847057 186.24644695 -245.06148446 180.99250315 -235 173 C-234.27039063 172.43796875 -233.54078125 171.8759375 -232.7890625 171.296875 C-228.3231486 167.71660647 -225.85920522 164.35768355 -224.40625 158.6796875 C-222.14023568 149.85841746 -217.9811804 144.64295135 -210.25 139.8125 C-208.51429338 138.84879424 -206.76403873 137.91080931 -205 137 C-204.21367187 136.59265625 -203.42734375 136.1853125 -202.6171875 135.765625 C-197.50484217 133.29759622 -192.27463252 131.37997679 -186.90527344 129.56445312 C-153.4880583 118.26175663 -130.72572963 96.73460907 -114.96484375 65.296875 C-111.34829655 57.81599107 -108.28317131 50.12127229 -105.38476562 42.33691406 C-103.1935575 36.5372138 -100.86929576 31.8587982 -97 27 C-90.87955758 32.2460935 -87.14401129 39.05565237 -85.9375 47.0625 C-85.28212442 61.20272465 -91.68091617 75.22523407 -97 88 C-89.61780084 88 -81.62347257 80.87685487 -76.46264648 75.85791016 C-73.12510482 72.4720658 -69.94558965 68.99278845 -66.9375 65.3125 C-63.88532217 61.61449904 -60.18668387 58.85432052 -56.40625 55.93359375 C-54.27745316 54.22295343 -52.38828315 52.46696162 -50.5 50.5 C-49.675 49.675 -48.85 48.85 -48 48 C-47.34 48 -46.68 48 -46 48 C-45.7321167 47.41895508 -45.4642334 46.83791016 -45.18823242 46.23925781 C-43.9781723 43.95886507 -42.63507411 42.15591466 -40.98828125 40.171875 C-40.09786133 39.09486328 -40.09786133 39.09486328 -39.18945312 37.99609375 C-38.26036133 36.88427734 -38.26036133 36.88427734 -37.3125 35.75 C-36.71244141 35.02425781 -36.11238281 34.29851563 -35.49414062 33.55078125 C-24.81122724 20.67620679 -13.82918736 9.5007606 0 0 Z M-128.98046875 121.75 C-134.49444058 124.8729575 -139.67111047 128.31725029 -144 133 C-144 133.66 -144 134.32 -144 135 C-137.47829427 134.06832775 -133.4443569 130.68880835 -128.6875 126.3125 C-127.80449219 125.50425781 -126.92148437 124.69601563 -126.01171875 123.86328125 C-125.34785156 123.24839844 -124.68398438 122.63351563 -124 122 C-126.84195468 120.70173072 -126.84195468 120.70173072 -128.98046875 121.75 Z M-206 168 C-207.29170908 171.1982633 -207.29170908 171.1982633 -207 174 C-201.3887174 178.8096708 -197.34912882 180.20215243 -190.0859375 180.36328125 C-187.47125986 179.90791604 -186.63827515 179.04413184 -185 177 C-184.4740625 175.948125 -184.4740625 175.948125 -183.9375 174.875 C-183 173 -183 173 -181 172 C-181.41027412 167.78651652 -181.41027412 167.78651652 -183.4375 164.1875 C-186.68884812 161.71647543 -189.41286126 161.54446433 -193.40625 161.58984375 C-198.29152623 162.36236484 -202.31111687 164.76311441 -206 168 Z " fill="#090809" transform="translate(423,0)"/>
<path d="M0 0 C-0.59687434 3.34249629 -1.73603877 5.46436342 -4 8 C-4.66 8 -5.32 8 -6 8 C-6.26296875 8.73992187 -6.5259375 9.47984375 -6.796875 10.2421875 C-8.00257045 13.00589201 -9.31485712 14.83246586 -11.25 17.125 C-14.63663696 21.33712971 -17.17498922 25.71985261 -19.640625 30.51953125 C-20.93598675 32.88319421 -22.23404167 34.96345128 -24 37 C-24.66 37 -25.32 37 -26 37 C-26.99 37.66 -27.98 38.32 -29 39 C-29 38.01 -29 37.02 -29 36 C-28.34 36 -27.68 36 -27 36 C-27.57944932 34.00136244 -27.57944932 34.00136244 -29 32 C-31.80376352 30.87050779 -31.80376352 30.87050779 -35 30 C-37.01470098 29.02995879 -39.01922047 28.03755118 -41 27 C-41.12375 27.5775 -41.2475 28.155 -41.375 28.75 C-42 31 -42 31 -43.0625 33.0625 C-44.21778046 35.09134681 -44.21778046 35.09134681 -44 38 C-46.02827807 39.01413903 -48.02695989 40.01110113 -50.125 40.875 C-52.14887743 41.85651743 -52.14887743 41.85651743 -52.9375 43.9375 C-54.3706234 46.71944543 -56.28183153 47.56938502 -59 49 C-57.52658145 44.37294875 -54.84404939 41.14662978 -51.6875 37.5625 C-50.73287303 36.45980843 -49.7784449 35.35694469 -48.82421875 34.25390625 C-48.11761108 33.44505981 -48.11761108 33.44505981 -47.39672852 32.61987305 C-46.03098361 31.03593362 -44.70515355 29.42491441 -43.3828125 27.8046875 C-41.41006748 25.48266959 -39.50585376 23.51967865 -37.1875 21.5625 C-36.50171875 20.97855469 -35.8159375 20.39460938 -35.109375 19.79296875 C-34.41328125 19.20128906 -33.7171875 18.60960937 -33 18 C-31.64510241 16.79248631 -30.29092471 15.58416432 -28.9375 14.375 C-20.95741158 7.44655114 -10.96590568 0 0 0 Z " fill="#110C0F" transform="translate(618,244)"/>
<path d="M0 0 C0.66 0.33 1.32 0.66 2 1 C1.154375 1.86625 0.30875 2.7325 -0.5625 3.625 C-2.82153412 6.29015261 -3.01839588 6.66887413 -2.8125 10.375 C-2.544375 11.24125 -2.27625 12.1075 -2 13 C3.12583611 13.10251672 7.94997778 13.03590199 13 12 C10.37284913 14.62715087 7.72362493 15.31323025 4.25 16.625 C-2.20497952 19.25637595 -5.57241133 21.97358291 -9 28 C-10.28812607 30.0022822 -11.57990432 32.00221874 -12.875 34 C-13.9199175 35.66463048 -14.96275052 37.33058072 -16 39 C-17.4765625 37.91796875 -17.4765625 37.91796875 -19 36 C-19.94033376 28.74467972 -20.1157969 20.33199523 -16 14 C-11.40797571 8.4684581 -5.85976952 4.11430626 0 0 Z " fill="#191519" transform="translate(67,728)"/>
<path d="M0 0 C-0.88375625 4.22239099 -2.01973897 6.32611758 -5.5 8.75 C-6.41265625 9.33007812 -6.41265625 9.33007812 -7.34375 9.921875 C-9.16217381 11.02427002 -9.16217381 11.02427002 -11 13 C-10.67 13.66 -10.34 14.32 -10 15 C-9.34 15 -8.68 15 -8 15 C-7.67 14.34 -7.34 13.68 -7 13 C-4 15 -4 15 -3.3125 17.125 C-3.209375 17.74375 -3.10625 18.3625 -3 19 C-5.5395837 19.67561372 -8.08118835 20.34065828 -10.625 21 C-11.33785156 21.19078125 -12.05070312 21.3815625 -12.78515625 21.578125 C-16.95848544 22.65017287 -20.65178751 23.21946814 -25 23 C-23.63569828 19.9499905 -22.08779506 17.83132733 -19.734375 15.46875 C-18.76951172 14.50001953 -18.76951172 14.50001953 -17.78515625 13.51171875 C-17.11355469 12.84785156 -16.44195312 12.18398438 -15.75 11.5 C-15.09386719 10.83613281 -14.43773437 10.17226563 -13.76171875 9.48828125 C-4.23556013 0 -4.23556013 0 0 0 Z " fill="#171115" transform="translate(361,785)"/>
<path d="M0 0 C0.66 0 1.32 0 2 0 C2 6.6 2 13.2 2 20 C1.01 19.67 0.02 19.34 -1 19 C-1.33 19.99 -1.66 20.98 -2 22 C-2.33 21.67 -2.66 21.34 -3 21 C-3.99 22.32 -4.98 23.64 -6 25 C-6.3473865 15.75565924 -6.06536085 7.39215853 0 0 Z " fill="#060203" transform="translate(458,394)"/>
<path d="M0 0 C0.66 0 1.32 0 2 0 C2.9765625 1.79036458 3.953125 3.58072917 4.9296875 5.37109375 C5.91410024 7.16618315 5.91410024 7.16618315 8 8 C8 6.35 8 4.7 8 3 C11.41911851 5.27941234 11.10118729 5.40474917 12 9 C12.99 9.66 13.98 10.32 15 11 C16.09765625 13.86328125 16.09765625 13.86328125 17.0625 17.3125 C18.19783125 21.31123697 19.38252754 25.16838747 21 29 C21.66 29 22.32 29 23 29 C23 29.66 23 30.32 23 31 C24.32 31.66 25.64 32.32 27 33 C26.01 33.495 26.01 33.495 25 34 C16.98852435 28.41059838 13.90362875 20.34508658 12 11 C11.34 11 10.68 11 10 11 C10.33 12.65 10.66 14.3 11 16 C10.01 16 9.02 16 8 16 C8 15.34 8 14.68 8 14 C7.34 14 6.68 14 6 14 C5.73445313 13.32453125 5.46890625 12.6490625 5.1953125 11.953125 C4.84210938 11.06109375 4.48890625 10.1690625 4.125 9.25 C3.77695313 8.36828125 3.42890625 7.4865625 3.0703125 6.578125 C2.1353291 4.3259752 1.12219206 2.16350541 0 0 Z " fill="#4A4149" transform="translate(109,548)"/>
<path d="M0 0 C-1.17433594 0.54269531 -2.34867188 1.08539063 -3.55859375 1.64453125 C-7.90551146 3.81942284 -11.38189732 6.54613554 -15.0625 9.6875 C-20.21267002 13.94575212 -25.44723888 17.76089028 -31.1875 21.1875 C-31.81084229 21.56156982 -32.43418457 21.93563965 -33.07641602 22.32104492 C-35.98896803 24.01453784 -38.65449207 25.44379893 -42 26 C-44.1127355 22.02308612 -43.88317274 19.38355785 -43.16015625 15.00390625 C-42.92284391 12.03460801 -43.85167868 9.70193253 -45 7 C-42.4375 8.875 -42.4375 8.875 -40 12 C-39.76048188 16.12359572 -40.13918712 20.27837425 -42 24 C-36.40179218 21.40823712 -31.49481265 18.38970093 -26.4921875 14.78125 C-24.71452348 13.5106939 -22.90887358 12.27892048 -21.0859375 11.07421875 C-17.88563578 8.92312987 -14.81967655 6.64560844 -11.75 4.3125 C-4.35578503 -1.30673551 -4.35578503 -1.30673551 0 0 Z " fill="#5B5361" transform="translate(170,239)"/>
<path d="M0 0 C3.94139078 1.66751148 6.7892812 4.22710649 10 7 C10.33 5.35 10.66 3.7 11 2 C11.33 2.66 11.66 3.32 12 4 C12.66 4 13.32 4 14 4 C14 4.66 14 5.32 14 6 C17.71736641 6.34900558 17.71736641 6.34900558 20.8125 4.5 C21.204375 4.005 21.59625 3.51 22 3 C22 6.94354501 20.62696952 8.14145968 18.1875 11.1875 C17.47980469 12.08855469 16.77210937 12.98960937 16.04296875 13.91796875 C15.36878906 14.60503906 14.69460937 15.29210937 14 16 C13.01 16 12.02 16 11 16 C10.67 15.01 10.34 14.02 10 13 C8.16392392 8.61133035 5.07785588 5.80599882 1.64453125 2.6015625 C1.10183594 2.07304687 0.55914062 1.54453125 0 1 C0 0.67 0 0.34 0 0 Z " fill="#1B161A" transform="translate(86,240)"/>
<path d="M0 0 C0.58652344 0.22945312 1.17304687 0.45890625 1.77734375 0.6953125 C0.95234375 1.4790625 0.12734375 2.2628125 -0.72265625 3.0703125 C-3.45254131 5.33252514 -3.45254131 5.33252514 -3.22265625 7.6953125 C-5.67299927 10.35568492 -8.17936633 12.66164256 -11.03515625 14.8828125 C-11.75703125 15.4809375 -12.47890625 16.0790625 -13.22265625 16.6953125 C-13.22265625 17.3553125 -13.22265625 18.0153125 -13.22265625 18.6953125 C-14.54265625 18.6953125 -15.86265625 18.6953125 -17.22265625 18.6953125 C-17.49078125 19.4790625 -17.75890625 20.2628125 -18.03515625 21.0703125 C-19.22265625 23.6953125 -19.22265625 23.6953125 -22.22265625 25.6953125 C-21.79443125 20.78439175 -19.31340577 17.93486921 -16.16015625 14.3828125 C-15.66572021 13.8161084 -15.17128418 13.2494043 -14.66186523 12.66552734 C-13.19455108 10.997208 -11.71127145 9.34462468 -10.22265625 7.6953125 C-9.44148437 6.81746094 -8.6603125 5.93960938 -7.85546875 5.03515625 C-2.79122555 -0.38262846 -2.79122555 -0.38262846 0 0 Z " fill="#070102" transform="translate(535.22265625,587.3046875)"/>
<path d="M0 0 C0 3 0 3 -1.375 4.4375 C-1.91125 4.953125 -2.4475 5.46875 -3 6 C-3.43119141 6.93585938 -3.43119141 6.93585938 -3.87109375 7.890625 C-5.17021636 10.31805132 -6.56822035 11.56794563 -8.6875 13.3125 C-19.27755466 22.19680846 -19.27755466 22.19680846 -26 34 C-27.32 34 -28.64 34 -30 34 C-30 29.87354197 -27.83275797 28.26655927 -25.125 25.4375 C-24.60776367 24.88682861 -24.09052734 24.33615723 -23.55761719 23.76879883 C-15.88639981 15.6710334 -7.92947598 7.84340117 0 0 Z " fill="#1B0F13" transform="translate(215,385)"/>
<path d="M0 0 C0.33 0.99 0.66 1.98 1 3 C4.63 3.33 8.26 3.66 12 4 C11.67 4.99 11.34 5.98 11 7 C15.29 7.66 19.58 8.32 24 9 C24 9.33 24 9.66 24 10 C5.92393776 12.54868557 5.92393776 12.54868557 -1 8 C-2.2077558 4.37673261 -1.54311128 3.35853631 0 0 Z " fill="#352E36" transform="translate(59,560)"/>
<path d="M0 0 C-1.10039859 5.25745995 -3.03982403 7.2019187 -7.34375 10.01953125 C-8.53648403 10.72560729 -9.7602717 11.38013585 -11 12 C-11.33 12.99 -11.66 13.98 -12 15 C-13.99609375 16.421875 -13.99609375 16.421875 -16.4375 17.75 C-17.24058594 18.19859375 -18.04367187 18.6471875 -18.87109375 19.109375 C-19.92490234 19.55023437 -19.92490234 19.55023437 -21 20 C-21.66 19.67 -22.32 19.34 -23 19 C-20.63349244 16.5748932 -18.25533103 14.16153387 -15.875 11.75 C-15.20984375 11.06808594 -14.5446875 10.38617187 -13.859375 9.68359375 C-4.26979672 0 -4.26979672 0 0 0 Z " fill="#21171A" transform="translate(361,785)"/>
<path d="M0 0 C7.45169665 2.76777304 11.54610559 5.77711907 15 13 C19.00038742 25.05770484 18.14883471 38.41519861 18 51 C17.34 51 16.68 51 16 51 C15.30289269 49.71349294 14.61757124 48.42059335 13.9375 47.125 C13.55464844 46.40570313 13.17179687 45.68640625 12.77734375 44.9453125 C12.52082031 44.30335938 12.26429687 43.66140625 12 43 C12.33 42.34 12.66 41.68 13 41 C13.99 42.65 14.98 44.3 16 46 C16.65565058 25.91519396 16.65565058 25.91519396 9 8 C6.69211868 5.90122202 4.35581026 4.05419145 1.79296875 2.27734375 C1.20128906 1.85582031 0.60960937 1.43429687 0 1 C0 0.67 0 0.34 0 0 Z " fill="#4A3E4B" transform="translate(48,384)"/>
<path d="M0 0 C1.875 0.125 1.875 0.125 4 1 C7.62793167 9.01963844 7.18250424 18.01231128 7.1875 26.625 C7.19974609 27.74390625 7.21199219 28.8628125 7.22460938 30.015625 C7.22654297 31.09585938 7.22847656 32.17609375 7.23046875 33.2890625 C7.23457764 34.26568848 7.23868652 35.24231445 7.24291992 36.24853516 C6.98325267 39.18969083 6.18727516 41.31314286 5 44 C4.63128912 45.65919896 4.28718326 47.3247643 4 49 C3.34 49 2.68 49 2 49 C2.48578543 45.87709365 2.9986012 43.00419641 4 40 C5.54902202 27.54082188 4.93668487 15.3563696 3 3 C2.01 3.33 1.02 3.66 0 4 C0 2.68 0 1.36 0 0 Z " fill="#392E35" transform="translate(736,799)"/>
<path d="M0 0 C3.09835401 2.22352464 4.74260819 3.60245651 5.44692993 7.42666626 C5.57877678 10.51001561 5.56134581 13.559154 5.48828125 16.64453125 C5.48120651 17.7694548 5.47413177 18.89437836 5.46684265 20.0533905 C5.43889144 23.64044149 5.37614717 27.22592212 5.3125 30.8125 C5.28741827 33.24672222 5.26460489 35.68096895 5.24414062 38.11523438 C5.18906226 44.0773572 5.10542705 50.0385664 5 56 C4.67 56 4.34 56 4 56 C3.97938507 55.43116592 3.95877014 54.86233185 3.93753052 54.27626038 C3.72009696 48.32170629 3.4910201 42.36767879 3.25537109 36.41381836 C3.16908825 34.19583218 3.0857113 31.97773087 3.00537109 29.75952148 C2.88895009 26.55938113 2.76186367 23.35980922 2.6328125 20.16015625 C2.59938751 19.17854019 2.56596252 18.19692413 2.53152466 17.18556213 C2.27870722 11.22616178 1.46145323 5.78600254 0 0 Z " fill="#4D3B44" transform="translate(460,254)"/>
<path d="M0 0 C-1.08539063 0.4125 -2.17078125 0.825 -3.2890625 1.25 C-11.59955335 4.55077833 -17.38926767 7.00921953 -22 15 C-23.29871844 16.36707204 -24.61444134 17.72102277 -26 19 C-25.54738642 17.56068883 -25.08767021 16.12361001 -24.625 14.6875 C-24.36976562 13.88699219 -24.11453125 13.08648438 -23.8515625 12.26171875 C-23 10 -23 10 -21 7 C-20.34 7 -19.68 7 -19 7 C-18.979375 6.401875 -18.95875 5.80375 -18.9375 5.1875 C-18 3 -18 3 -14.9375 1.3125 C-10.05800897 -0.52862754 -5.04388122 -1.68129374 0 0 Z " fill="#5A5158" transform="translate(80,741)"/>
<path d="M0 0 C1.65 0.33 3.3 0.66 5 1 C5 2.32 5 3.64 5 5 C3.865625 5.53625 2.73125 6.0725 1.5625 6.625 C-1.54629332 8.36742851 -1.89118154 8.62276269 -2.9375 12.25 C-2.958125 13.1575 -2.97875 14.065 -3 15 C-0.702779 16.74271938 1.59866729 18.39911152 4 20 C1.03 19.67 -1.94 19.34 -5 19 C-5.99778578 15.00885686 -6.35847624 12.08662911 -6 8 C-4.125 5.25 -4.125 5.25 -2 3 C-1.34 2.01 -0.68 1.02 0 0 Z M-9 9 C-7.515 9.99 -7.515 9.99 -6 11 C-6.99 11 -7.98 11 -9 11 C-9 10.34 -9 9.68 -9 9 Z " fill="#110E12" transform="translate(220,159)"/>
<path d="M0 0 C0.58950439 0.20447754 1.17900879 0.40895508 1.78637695 0.61962891 C0.53637695 4.05712891 0.53637695 4.05712891 -1.21362305 7.61962891 C-3.08862305 8.49462891 -3.08862305 8.49462891 -5.21362305 8.61962891 C-6.54393555 8.89806641 -6.54393555 8.89806641 -7.90112305 9.18212891 C-10.21362305 9.61962891 -10.21362305 9.61962891 -11.21362305 9.61962891 C-13.23038884 11.26596833 -15.23101879 12.93230613 -17.21362305 14.61962891 C-17.1224206 11.96035743 -16.77172243 10.19267921 -14.88305664 8.25341797 C-13.1027545 6.83597013 -11.27810126 5.53116071 -9.40112305 4.24462891 C-8.77141602 3.78185547 -8.14170898 3.31908203 -7.49291992 2.84228516 C-2.77246472 -0.47639793 -2.77246472 -0.47639793 0 0 Z " fill="#150B0E" transform="translate(250.213623046875,359.38037109375)"/>
<path d="M0 0 C1.32 0 2.64 0 4 0 C6.70058053 8.1017416 5.17202046 18.64935423 4 27 C3.67 27 3.34 27 3 27 C2.02840067 19.31395526 1.89079578 11.74136601 2 4 C0.68 5.65 -0.64 7.3 -2 9 C-2.6875 7.3125 -2.6875 7.3125 -3 5 C-1.8125 2.25 -1.8125 2.25 0 0 Z " fill="#43343D" transform="translate(505,310)"/>
<path d="M0 0 C0 1.32 0 2.64 0 4 C-0.495 2.515 -0.495 2.515 -1 1 C-4.77164068 1.08215994 -8.54181197 1.19487406 -12.3125 1.3125 C-13.36501953 1.33505859 -14.41753906 1.35761719 -15.50195312 1.38085938 C-25.4605881 1.71792087 -34.24883971 3.18211272 -42.44140625 9.109375 C-42.95574219 9.40328125 -43.47007812 9.6971875 -44 10 C-44.66 9.67 -45.32 9.34 -46 9 C-44.7764437 8.03451388 -43.54585189 7.07794102 -42.3125 6.125 C-41.62800781 5.59132813 -40.94351563 5.05765625 -40.23828125 4.5078125 C-35.12852671 1.06563928 -30.06011044 0.42319621 -24.0625 -0.1875 C-23.22871826 -0.27499512 -22.39493652 -0.36249023 -21.53588867 -0.45263672 C-14.23993657 -1.13538872 -7.2847504 -0.87939891 0 0 Z " fill="#3E2E3B" transform="translate(715,677)"/>
<path d="M0 0 C0.66 0.99 1.32 1.98 2 3 C1.125 5.6875 1.125 5.6875 0 8 C-4.19469571 7.40075776 -8.00999834 6.42500059 -12 5 C-12 4.34 -12 3.68 -12 3 C-12.99 2.34 -13.98 1.68 -15 1 C-14.16855469 1.01160156 -13.33710937 1.02320313 -12.48046875 1.03515625 C-10.85044922 1.04869141 -10.85044922 1.04869141 -9.1875 1.0625 C-7.56908203 1.07990234 -7.56908203 1.07990234 -5.91796875 1.09765625 C-2.93487831 1.13624766 -2.93487831 1.13624766 0 0 Z " fill="#040303" transform="translate(46,467)"/>
<path d="M0 0 C1.27752991 3.88403389 0.37724933 6.00742249 -1.1640625 9.76171875 C-2.52639682 13.40946439 -3.24974491 17.18693882 -4 21 C-3.2575 20.21625 -2.515 19.4325 -1.75 18.625 C0.59421977 16.38733567 2.14324985 15.30629174 5 14 C1.6189962 18.13621084 -1.66590534 21.81316569 -6 25 C-7.58058077 21.00802037 -6.36916435 17.57316312 -5.25 13.625 C-5.07984375 12.97789062 -4.9096875 12.33078125 -4.734375 11.6640625 C-3.59203346 7.4978757 -2.04631461 3.79861851 0 0 Z " fill="#433A44" transform="translate(313,867)"/>
<path d="M0 0 C1.32 0 2.64 0 4 0 C2.46462766 4.91319147 -0.41360843 9.32235164 -4 13 C-4.99 13 -5.98 13 -7 13 C-7.32613618 8.32538149 -6.70582788 5.83325617 -4 2 C-3.67 2.66 -3.34 3.32 -3 4 C-2.34 4 -1.68 4 -1 4 C-0.67 2.68 -0.34 1.36 0 0 Z " fill="#181011" transform="translate(339,441)"/>
<path d="M0 0 C1.65 0 3.3 0 5 0 C5 3.3 5 6.6 5 10 C3.35 10.33 1.7 10.66 0 11 C-2 8 -2 8 -1.6875 4.375 C-1 1 -1 1 0 0 Z " fill="#221821" transform="translate(228,163)"/>
<path d="M0 0 C2.83828597 2.83828597 2.89952828 5.28200073 3.22265625 9.19921875 C2.76035165 15.014524 -0.69719224 19.69719224 -4.73828125 23.73828125 C-6.375 25.125 -6.375 25.125 -9 27 C-7.68 27.66 -6.36 28.32 -5 29 C-6.98 29.33 -8.96 29.66 -11 30 C-11 26 -11 26 -9.609375 24.578125 C-8.68898437 23.92070313 -8.68898437 23.92070313 -7.75 23.25 C-3.79369103 20.02396307 -1.35516947 16.97716786 0 12 C0.30171156 7.97388175 0.24166652 4.02777526 0 0 Z " fill="#443844" transform="translate(199,791)"/>
<path d="M0 0 C7.57055653 6.86081685 14.67781169 16.26943752 18 26 C17.67 26.99 17.34 27.98 17 29 C16.68289063 28.35675781 16.36578125 27.71351563 16.0390625 27.05078125 C12.72331899 20.62996302 8.94540013 15.04239169 4.34033203 9.50512695 C1.80738914 6.38461555 0.3942294 4.03155347 0 0 Z " fill="#41343D" transform="translate(748,744)"/>
<path d="M0 0 C5.20989603 1.26707056 7.2861197 2.99115592 10.3125 7.375 C11.32763672 8.80972656 11.32763672 8.80972656 12.36328125 10.2734375 C13.77806254 12.6302808 14.56180078 14.31999896 15 17 C10.5897308 13.92617601 7.6512445 10.17371824 4.453125 5.92578125 C3.14234674 4.09616822 3.14234674 4.09616822 2 3 C2 5.64 2 8.28 2 11 C-0.67927341 6.98108988 -0.15601248 4.75838077 0 0 Z " fill="#4B3F4C" transform="translate(141,304)"/>
<path d="M0 0 C4.20763224 1.5027258 5.8027758 4.23332995 8 8 C8 8.66 8 9.32 8 10 C6.3603125 9.76990234 6.3603125 9.76990234 4.6875 9.53515625 C-0.52933947 8.88305132 -5.75005734 8.65835966 -11 8.4375 C-11.96550781 8.39431641 -12.93101563 8.35113281 -13.92578125 8.30664062 C-16.28374425 8.20158287 -18.64179416 8.09943086 -21 8 C-21 7.67 -21 7.34 -21 7 C-4.29157175 5.66742597 -4.29157175 5.66742597 4 7 C2.02 3.535 2.02 3.535 0 0 Z " fill="#524450" transform="translate(109,712)"/>
<path d="M0 0 C-3.33803691 2.22535794 -4.62819711 2.28978404 -8.54296875 2.4140625 C-10.15268555 2.47207031 -10.15268555 2.47207031 -11.79492188 2.53125 C-12.91447266 2.5621875 -14.03402344 2.593125 -15.1875 2.625 C-16.88422852 2.68300781 -16.88422852 2.68300781 -18.61523438 2.7421875 C-21.4099925 2.83652533 -24.20474278 2.92211652 -27 3 C-26.67 4.65 -26.34 6.3 -26 8 C-28 6.1875 -28 6.1875 -30 4 C-30 3.01 -30 2.02 -30 1 C-19.96557967 0.12198822 -10.06394247 -0.1176305 0 0 Z " fill="#504350" transform="translate(208,308)"/>
<path d="M0 0 C1.16956409 3.50869228 0.7493447 5.48322743 0.25 9.125 C-0.30010346 15.0634663 0.49897307 18.32549244 3.87109375 23.1953125 C5 25 5 25 5 28 C0.22423661 27.5317879 -3.04476345 26.75668002 -7 24 C-6.34 23.67 -5.68 23.34 -5 23 C-3.0546875 23.77734375 -3.0546875 23.77734375 -0.875 24.9375 C-0.15054688 25.31777344 0.57390625 25.69804688 1.3203125 26.08984375 C1.87460938 26.39019531 2.42890625 26.69054687 3 27 C2.6390625 26.46632813 2.278125 25.93265625 1.90625 25.3828125 C-2.29627947 18.63541797 -3.03334749 13.35777649 -1.53515625 5.58984375 C-1.0813353 3.71162128 -0.54893578 1.85265825 0 0 Z " fill="#564E58" transform="translate(104,779)"/>
<path d="M0 0 C1.62948507 0.2330919 3.25892722 0.46648675 4.88818359 0.70117188 C6.30428866 0.90155484 7.7213193 1.09549536 9.13916016 1.28320312 C11.36743954 1.5828871 13.58935569 1.91450381 15.8125 2.25 C16.9562207 2.39501953 16.9562207 2.39501953 18.12304688 2.54296875 C20.33203125 2.890625 20.33203125 2.890625 24 4 C25.51171875 6.609375 25.51171875 6.609375 26 9 C24.68 10.32 23.36 11.64 22 13 C22.66 11.35 23.32 9.7 24 8 C23.34 8 22.68 8 22 8 C22 7.01 22 6.02 22 5 C21.0821875 4.96261719 20.164375 4.92523437 19.21875 4.88671875 C12.21225347 4.51137072 6.39311374 3.94083232 0 1 C0 0.67 0 0.34 0 0 Z " fill="#604F59" transform="translate(332,684)"/>
<path d="M0 0 C16.335 0.495 16.335 0.495 33 1 C33 1.33 33 1.66 33 2 C28.43895119 2.39428061 23.87614109 2.76205947 19.3125 3.125 C17.37213867 3.29322266 17.37213867 3.29322266 15.39257812 3.46484375 C14.14541016 3.56152344 12.89824219 3.65820312 11.61328125 3.7578125 C10.46641846 3.8520752 9.31955566 3.94633789 8.13793945 4.04345703 C4.91150535 3.99877445 2.87903573 3.40061197 0 2 C0 1.34 0 0.68 0 0 Z " fill="#4E404B" transform="translate(723,320)"/>
<path d="M0 0 C0.94875 0.04125 1.8975 0.0825 2.875 0.125 C2.875 0.785 2.875 1.445 2.875 2.125 C1.555 2.125 0.235 2.125 -1.125 2.125 C-2.1520863 6.51345966 -2.30134023 9.19928407 -0.6875 13.4375 C1.09112308 18.20781629 1.84915373 23.07277132 0.875 28.125 C-0.115 28.785 -1.105 29.445 -2.125 30.125 C-2.125 29.135 -2.125 28.145 -2.125 27.125 C-1.465 27.125 -0.805 27.125 -0.125 27.125 C-0.40984846 25.39469709 -0.70319938 23.66579286 -1 21.9375 C-1.16242188 20.97457031 -1.32484375 20.01164062 -1.4921875 19.01953125 C-2.10696968 16.20747201 -3.05454169 13.78830027 -4.125 11.125 C-4.609375 8.73828125 -4.609375 8.73828125 -4.875 6.4375 C-4.97296875 5.67050781 -5.0709375 4.90351563 -5.171875 4.11328125 C-5.08477558 0.41881418 -3.38851299 0.13554052 0 0 Z " fill="#402A29" transform="translate(350.125,224.875)"/>
<path d="M0 0 C0.33 0 0.66 0 1 0 C0.95359375 1.00160156 0.9071875 2.00320313 0.859375 3.03515625 C0.62124541 10.47133642 0.66221985 15.70322237 5 22 C4.75 24.4375 4.75 24.4375 4 26 C2.02 25.34 0.04 24.68 -2 24 C-1.34 23.67 -0.68 23.34 0 23 C0.99 23.33 1.98 23.66 3 24 C2.62746094 23.57332031 2.25492188 23.14664063 1.87109375 22.70703125 C-2.40211944 17.0598694 -2.28509399 12.75699159 -1.4921875 5.85546875 C-1 3 -1 3 0 0 Z " fill="#605661" transform="translate(138,559)"/>
<path d="M0 0 C0 4.9090659 -3.01037414 8.25475442 -6 12 C-9.94388241 15.75859935 -13.47137387 17.59546638 -19 18 C-15.25 15 -15.25 15 -13 15 C-12.67 14.01 -12.34 13.02 -12 12 C-9.41927097 9.67734388 -8.54823932 9 -5 9 C-4.731875 8.071875 -4.46375 7.14375 -4.1875 6.1875 C-3.08851629 3.23759634 -2.37581439 1.94384814 0 0 Z " fill="#4A434B" transform="translate(102,551)"/>
<path d="M0 0 C2.10304945 1.50217818 2.84875593 2.56001725 3.6875 5 C4 7 4 7 4 10 C0.04 7.36 -3.92 4.72 -8 2 C-4.76746204 -0.15502531 -3.74849077 -0.46856135 0 0 Z " fill="#100709" transform="translate(692,405)"/>
<path d="M0 0 C5.04311454 7.56467182 4.24695018 17.24698792 4 26 C2 25 2 25 1.3671875 23.15234375 C1.20476562 22.42144531 1.04234375 21.69054687 0.875 20.9375 C0.70742187 20.20402344 0.53984375 19.47054688 0.3671875 18.71484375 C0.24601562 18.14894531 0.12484375 17.58304687 0 17 C0.33 17 0.66 17 1 17 C1.12036664 11.22240116 0.8320582 5.72040011 0 0 Z " fill="#5A465B" transform="translate(85,380)"/>
<path d="M0 0 C1.01964844 0.00064453 2.03929687 0.00128906 3.08984375 0.00195312 C7.99620408 0.03066395 12.6799762 0.15581682 17.5 1.1875 C17.5 1.5175 17.5 1.8475 17.5 2.1875 C16.67798096 2.17702637 15.85596191 2.16655273 15.0090332 2.15576172 C11.27688669 2.11413241 7.5447891 2.08815147 3.8125 2.0625 C2.51892578 2.04574219 1.22535156 2.02898438 -0.10742188 2.01171875 C-1.35458984 2.00527344 -2.60175781 1.99882813 -3.88671875 1.9921875 C-5.03358154 1.98171387 -6.18044434 1.97124023 -7.36206055 1.96044922 C-10.54244283 2.19057102 -12.70671128 2.65996485 -15.5 4.1875 C-15.83 5.1775 -16.16 6.1675 -16.5 7.1875 C-16.83 5.5375 -17.16 3.8875 -17.5 2.1875 C-11.71834955 -0.31722186 -6.17685901 -0.07418478 0 0 Z " fill="#46343B" transform="translate(332.5,667.8125)"/>
<path d="M0 0 C0.33 0.99 0.66 1.98 1 3 C2.98 3 4.96 3 7 3 C7.33 3.66 7.66 4.32 8 5 C7.01 5 6.02 5 5 5 C4.67 6.32 4.34 7.64 4 9 C4.99 9.33 5.98 9.66 7 10 C1.46153846 9.38461538 1.46153846 9.38461538 -0.875 7.4375 C-1.24625 6.963125 -1.6175 6.48875 -2 6 C-1.34 4.02 -0.68 2.04 0 0 Z " fill="#6F676F" transform="translate(59,560)"/>
<path d="M0 0 C0.66 0 1.32 0 2 0 C2.98350025 2.08129104 3.96164458 4.16511359 4.9375 6.25 C5.48277344 7.41015625 6.02804688 8.5703125 6.58984375 9.765625 C7.66448266 12.23044777 8.48780081 14.38065227 9 17 C9.66 17 10.32 17 11 17 C11 17.66 11 18.32 11 19 C12.32 19.66 13.64 20.32 15 21 C14.34 21.33 13.68 21.66 13 22 C5.34287818 16.65782199 2.12727043 8.89585814 0 0 Z " fill="#544B55" transform="translate(121,560)"/>
<path d="M0 0 C1 2 1 2 0.5 4.125 C-1.65178891 8.24926208 -4.36299972 12.06270318 -8 15 C-10.73046875 15.23046875 -10.73046875 15.23046875 -13 15 C-11.625 13 -11.625 13 -10 11 C-9.34 11 -8.68 11 -8 11 C-7.73445313 10.41734375 -7.46890625 9.8346875 -7.1953125 9.234375 C-5.96697004 6.93825772 -4.59685061 5.19643982 -2.875 3.25 C-2.33617187 2.63640625 -1.79734375 2.0228125 -1.2421875 1.390625 C-0.62730469 0.70226562 -0.62730469 0.70226562 0 0 Z " fill="#1F0E13" transform="translate(401,515)"/>
<path d="M0 0 C0.66 0.33 1.32 0.66 2 1 C1.42415568 3.38564077 0.77772405 5.66682784 0 8 C-1.32 8 -2.64 8 -4 8 C-4.33 7.34 -4.66 6.68 -5 6 C-7.01669827 4.86649466 -7.01669827 4.86649466 -9 4 C-7.54618103 3.30300448 -6.08677047 2.61766134 -4.625 1.9375 C-3.40683594 1.36322266 -3.40683594 1.36322266 -2.1640625 0.77734375 C-1.44992187 0.52082031 -0.73578125 0.26429688 0 0 Z " fill="#1A1013" transform="translate(583,553)"/>
<path d="M0 0 C1.79236067 0.47656412 3.58386897 0.95633498 5.375 1.4375 C6.37273438 1.70433594 7.37046875 1.97117187 8.3984375 2.24609375 C11 3 11 3 13 4 C13 4.99 13 5.98 13 7 C8.71 6.67 4.42 6.34 0 6 C0 5.67 0 5.34 0 5 C1.65 4.67 3.3 4.34 5 4 C4.175 3.525625 3.35 3.05125 2.5 2.5625 C1.675 2.046875 0.85 1.53125 0 1 C0 0.67 0 0.34 0 0 Z " fill="#605761" transform="translate(799,314)"/>
<path d="M0 0 C0.33 0 0.66 0 1 0 C1.33 9.57 1.66 19.14 2 29 C2.99 29.33 3.98 29.66 5 30 C3.02 30.99 3.02 30.99 1 32 C0.06503781 24.93993115 -0.12086777 18.05387765 -0.0625 10.9375 C-0.05798828 9.88111328 -0.05347656 8.82472656 -0.04882812 7.73632812 C-0.03715918 5.15749092 -0.02078885 2.57877706 0 0 Z " fill="#5E494F" transform="translate(381,394)"/>
<path d="M0 0 C1 3 1 3 0.14453125 5.3046875 C-2.24773618 9.92085164 -4.60963915 14.02509418 -8 18 C-8.70885894 19.31138904 -9.39456452 20.63777017 -10 22 C-10.66 21.67 -11.32 21.34 -12 21 C-8 14 -4 7 0 0 Z " fill="#544853" transform="translate(180,423)"/>
<path d="M0 0 C0.81210937 0.33837891 0.81210937 0.33837891 1.640625 0.68359375 C0.0009375 1.58078125 0.0009375 1.58078125 -1.671875 2.49609375 C-3.76743925 3.68273857 -5.33666755 4.6608863 -7.046875 6.37109375 C-8.69902704 8.02324579 -10.09150049 8.2925809 -12.359375 8.68359375 C-12.689375 7.69359375 -13.019375 6.70359375 -13.359375 5.68359375 C-11.61814951 4.64786479 -9.86600905 3.63046855 -8.109375 2.62109375 C-6.64757812 1.76837891 -6.64757812 1.76837891 -5.15625 0.8984375 C-2.359375 -0.31640625 -2.359375 -0.31640625 0 0 Z " fill="#160A0D" transform="translate(301.359375,329.31640625)"/>
<path d="M0 0 C0 2.83967231 -0.40267181 5.23735711 -1 8 C-1.66 8 -2.32 8 -3 8 C-3.33 8.66 -3.66 9.32 -4 10 C-4.66 10 -5.32 10 -6 10 C-6.99 10.33 -7.98 10.66 -9 11 C-9.33 10.34 -9.66 9.68 -10 9 C-6.85281112 5.7317654 -3.50647501 2.8689341 0 0 Z " fill="#030102" transform="translate(530,352)"/>
<path d="M0 0 C0.71542969 0.28746094 1.43085937 0.57492187 2.16796875 0.87109375 C2.71066406 1.09925781 3.25335937 1.32742188 3.8125 1.5625 C0.77724514 3.58600324 -0.38176202 3.88374018 -3.875 4.1875 C-4.68324219 4.26226562 -5.49148438 4.33703125 -6.32421875 4.4140625 C-7.24654297 4.48753906 -7.24654297 4.48753906 -8.1875 4.5625 C-7.8575 2.9125 -7.5275 1.2625 -7.1875 -0.4375 C-3.77818103 -1.57393966 -3.18414544 -1.30497764 0 0 Z " fill="#140E14" transform="translate(702.1875,257.4375)"/>
<path d="M0 0 C2.359375 0.1796875 2.359375 0.1796875 5 1 C6.328125 3.2578125 6.328125 3.2578125 7.25 6.125 C7.72953125 7.60806641 7.72953125 7.60806641 8.21875 9.12109375 C9.12018968 12.44289896 9.69557564 15.57522601 10 19 C9.5978125 18.18015625 9.5978125 18.18015625 9.1875 17.34375 C7.84654171 14.69712179 6.42872249 12.10027493 5 9.5 C3.27430349 6.35923236 1.57841815 3.21754469 0 0 Z " fill="#2C181F" transform="translate(353,227)"/>
<path d="M0 0 C0.33 0 0.66 0 1 0 C2.11165232 4.4378561 2.11527763 8.76956386 2.0625 13.3125 C2.05798828 14.05306641 2.05347656 14.79363281 2.04882812 15.55664062 C2.03712175 17.37112899 2.01918898 19.18557534 2 21 C1.34 21 0.68 21 0 21 C-0.69710731 19.71349294 -1.38242876 18.42059335 -2.0625 17.125 C-2.44535156 16.40570313 -2.82820313 15.68640625 -3.22265625 14.9453125 C-3.60744141 13.98238281 -3.60744141 13.98238281 -4 13 C-3.67 12.34 -3.34 11.68 -3 11 C-2.01 12.65 -1.02 14.3 0 16 C0 10.72 0 5.44 0 0 Z " fill="#655260" transform="translate(64,414)"/>
<path d="M0 0 C0.66 0.66 1.32 1.32 2 2 C-1.625 7.875 -1.625 7.875 -5 9 C-7.6875 8.5625 -7.6875 8.5625 -10 8 C-7.92141021 5.81907964 -5.78143382 4.03609531 -3.3125 2.3125 C-2.68988281 1.87550781 -2.06726563 1.43851563 -1.42578125 0.98828125 C-0.95527344 0.66214844 -0.48476563 0.33601562 0 0 Z " fill="#190D11" transform="translate(387,530)"/>
<path d="M0 0 C-1.33240612 3.58724724 -2.70939472 6.91649289 -5 10 C-6.32 10 -7.64 10 -9 10 C-9 6.47899095 -8.41671132 5.89968686 -6.1875 3.3125 C-5.40439453 2.37857422 -5.40439453 2.37857422 -4.60546875 1.42578125 C-3 0 -3 0 0 0 Z " fill="#4D4145" transform="translate(194,409)"/>
<path d="M0 0 C0.99 0 1.98 0 3 0 C1.8947206 2.80570925 0.74530371 5.52976828 -0.5625 8.25 C-2.14769737 11.84839803 -2.47321987 15.27877953 -2.69140625 19.1796875 C-2.79324219 19.78039062 -2.89507812 20.38109375 -3 21 C-3.66 21.33 -4.32 21.66 -5 22 C-4.7219098 13.90757513 -3.48645046 7.32965398 0 0 Z " fill="#534A55" transform="translate(16,475)"/>
<path d="M0 0 C0 2.95274099 -0.43891831 4.49058403 -1.5 7.1875 C-1.7784375 7.90292969 -2.056875 8.61835938 -2.34375 9.35546875 C-2.5603125 9.89816406 -2.776875 10.44085938 -3 11 C-3.598125 10.67 -4.19625 10.34 -4.8125 10 C-7.05386471 8.79212012 -7.05386471 8.79212012 -10 9 C-6.7 6.03 -3.4 3.06 0 0 Z " fill="#1C1016" transform="translate(618,292)"/>
<path d="M0 0 C-0.33 0.66 -0.66 1.32 -1 2 C-9.415 2.495 -9.415 2.495 -18 3 C-12.08111091 -0.94592606 -6.7418108 -1.40454392 0 0 Z " fill="#322530" transform="translate(410,811)"/>
<path d="M0 0 C2 2 2 2 2 5 C-1.50776784 6.60355101 -4.14354879 7.22036864 -8 7 C-5.42215154 4.35247996 -3.08351902 2.05567935 0 0 Z " fill="#040203" transform="translate(197,812)"/>
<path d="M0 0 C2.5625 1.875 2.5625 1.875 5 5 C5.1465164 8.42743722 4.65867457 11.64141186 4 15 C3.01 15.33 2.02 15.66 1 16 C1.09539062 15.34773438 1.19078125 14.69546875 1.2890625 14.0234375 C1.95354181 8.78486807 2.21793267 4.95773184 0 0 Z " fill="#5A4F5A" transform="translate(125,246)"/>
<path d="M0 0 C2 3 2 3 2 5 C0.54735962 5.8638129 -0.9123163 6.71580454 -2.375 7.5625 C-3.59316406 8.27599609 -3.59316406 8.27599609 -4.8359375 9.00390625 C-5.55007813 9.33261719 -6.26421875 9.66132812 -7 10 C-7.66 9.67 -8.32 9.34 -9 9 C-6.03 6.03 -3.06 3.06 0 0 Z " fill="#3C2F37" transform="translate(347,795)"/>
<path d="M0 0 C0.66 0.33 1.32 0.66 2 1 C-4.15034169 9.44646925 -4.15034169 9.44646925 -8 13 C-7.54738642 11.56068883 -7.08767021 10.12361001 -6.625 8.6875 C-6.24214844 7.48673828 -6.24214844 7.48673828 -5.8515625 6.26171875 C-5 4 -5 4 -3 1 C-2.01 0.67 -1.02 0.34 0 0 Z " fill="#615860" transform="translate(62,747)"/>
<path d="M0 0 C-1.89454824 0.96087136 -3.79069581 1.91858969 -5.6875 2.875 C-6.74324219 3.40867187 -7.79898438 3.94234375 -8.88671875 4.4921875 C-11.55995905 5.78688105 -14.2271133 6.94023254 -17 8 C-12.64453844 3.10010575 -6.89824704 -2.36599119 0 0 Z " fill="#594C59" transform="translate(686,679)"/>
<path d="M0 0 C0.66 0 1.32 0 2 0 C2.94401042 1.7578125 3.88802083 3.515625 4.83203125 5.2734375 C6.04763493 7.30502365 6.04763493 7.30502365 9 9 C9.1875 11.625 9.1875 11.625 9 14 C8.01 14 7.02 14 6 14 C5.73445313 13.32453125 5.46890625 12.6490625 5.1953125 11.953125 C4.84210938 11.06109375 4.48890625 10.1690625 4.125 9.25 C3.77695313 8.36828125 3.42890625 7.4865625 3.0703125 6.578125 C2.1353291 4.3259752 1.12219206 2.16350541 0 0 Z " fill="#362C36" transform="translate(109,548)"/>
<path d="M0 0 C0.6875 1.6875 0.6875 1.6875 1 4 C-0.1875 6.6875 -0.1875 6.6875 -2 9 C-4.1875 9.8125 -4.1875 9.8125 -6 10 C-4.52307692 3.47692308 -4.52307692 3.47692308 -1.875 1.0625 C-1.25625 0.711875 -0.6375 0.36125 0 0 Z " fill="#211A1D" transform="translate(186,417)"/>
<path d="M0 0 C2.51171875 2.01171875 2.51171875 2.01171875 5 5 C5.20603029 7.88143806 5.18442048 10.01640721 4.8125 12.8125 C4.74224609 13.50537109 4.67199219 14.19824219 4.59960938 14.91210938 C4.42388847 16.61074484 4.2152232 18.3059164 4 20 C3.67 20 3.34 20 3 20 C2.95101563 19.31035156 2.90203125 18.62070312 2.8515625 17.91015625 C2.36271949 11.76590531 1.47174401 5.9850923 0 0 Z " fill="#564A4E" transform="translate(460,254)"/>
<path d="M0 0 C0.33 0.66 0.66 1.32 1 2 C3.64797776 2.26065105 6.22074462 2.42152636 8.875 2.5 C16.59602116 2.73068077 16.59602116 2.73068077 20 5 C13.4 4.67 6.8 4.34 0 4 C-0.33 3.34 -0.66 2.68 -1 2 C-0.67 1.34 -0.34 0.68 0 0 Z " fill="#675666" transform="translate(69,688)"/>
<path d="M0 0 C0.33 1.32 0.66 2.64 1 4 C0.01 4.33 -0.98 4.66 -2 5 C-2.68132451 6.66072849 -3.34742127 8.327767 -4 10 C-4.99 10.66 -5.98 11.32 -7 12 C-6.67566492 6.64847115 -3.50295176 3.71719957 0 0 Z " fill="#251418" transform="translate(520,601)"/>
<path d="M0 0 C0.99 0.33 1.98 0.66 3 1 C2.3503125 1.5878125 2.3503125 1.5878125 1.6875 2.1875 C-2.35332001 6.52764001 -3.21965961 10.20318565 -4 16 C-4.66 16.33 -5.32 16.66 -6 17 C-5.57648536 10.4282211 -4.87715557 4.87715557 0 0 Z " fill="#604C59" transform="translate(457,393)"/>
<path d="M0 0 C2.475 0.495 2.475 0.495 5 1 C5 4.3 5 7.6 5 11 C4.34 11 3.68 11 3 11 C2.67 12.32 2.34 13.64 2 15 C2.02320313 14.16855469 2.04640625 13.33710938 2.0703125 12.48046875 C2.08835937 11.39378906 2.10640625 10.30710937 2.125 9.1875 C2.14820313 8.10855469 2.17140625 7.02960938 2.1953125 5.91796875 C2.23023717 2.80597132 2.23023717 2.80597132 0 0 Z " fill="#3F252F" transform="translate(380,377)"/>
<path d="M0 0 C0.33 0 0.66 0 1 0 C1.0543965 2.37531394 1.09385864 4.74935883 1.125 7.125 C1.14175781 7.79015625 1.15851562 8.4553125 1.17578125 9.140625 C1.21847278 13.49516056 0.59996217 16.95600114 -1 21 C-1.66 21 -2.32 21 -3 21 C-2.51421457 17.87709365 -2.0013988 15.00419641 -1 12 C-0.77674186 9.94106379 -0.59294241 7.87766347 -0.4375 5.8125 C-0.35371094 4.72582031 -0.26992188 3.63914062 -0.18359375 2.51953125 C-0.12300781 1.68808594 -0.06242188 0.85664062 0 0 Z " fill="#3F3843" transform="translate(741,827)"/>
<path d="M0 0 C4.16138263 -0.08159574 7.9472484 0.01751476 12 1 C12 1.66 12 2.32 12 3 C9.1875 4.125 9.1875 4.125 6 5 C3.63158688 3.42105792 1.93254772 2.0245738 0 0 Z " fill="#4C414B" transform="translate(31,468)"/>
<path d="M0 0 C1 2 1 2 1.1875 4.4375 C1.79369301 7.33717566 1.79369301 7.33717566 5.0625 8.8125 C6.031875 9.204375 7.00125 9.59625 8 10 C8 10.33 8 10.66 8 11 C5.03 10.67 2.06 10.34 -1 10 C-2.10191901 5.59232396 -1.58706842 4.1077065 0 0 Z " fill="#443741" transform="translate(216,168)"/>
<path d="M0 0 C2.1015625 0.4296875 2.1015625 0.4296875 4 1 C2.88121617 2.17262904 1.75476949 3.33795138 0.625 4.5 C-0.00148438 5.1496875 -0.62796875 5.799375 -1.2734375 6.46875 C-3 8 -3 8 -5 8 C-2.89285714 2.00274725 -2.89285714 2.00274725 0 0 Z " fill="#2F232B" transform="translate(91,753)"/>
<path d="M0 0 C-0.5 2.3125 -0.5 2.3125 -2 5 C-4.5690412 6.34219295 -7.21813439 7.20425705 -10 8 C-8.18341255 3.37595922 -5.13109685 0 0 0 Z " fill="#040202" transform="translate(280,109)"/>
<path d="M0 0 C1.24103707 3.58521821 1.10314892 6.37536784 0 10 C-2.5625 11.375 -2.5625 11.375 -5 12 C-3.41037341 7.96479403 -1.71767682 3.98188718 0 0 Z " fill="#221419" transform="translate(415,492)"/>
<path d="M0 0 C0 0.66 0 1.32 0 2 C0.66 2.33 1.32 2.66 2 3 C-1.65079826 4.61064629 -5.0507432 5.44894091 -9 6 C-3.2 0 -3.2 0 0 0 Z " fill="#23181F" transform="translate(423,863)"/>
<path d="M0 0 C2.64 0 5.28 0 8 0 C8.66 1.65 9.32 3.3 10 5 C8.68 6.32 7.36 7.64 6 9 C6.66 7.35 7.32 5.7 8 4 C7.34 4 6.68 4 6 4 C6 3.01 6 2.02 6 1 C4.02 1 2.04 1 0 1 C0 0.67 0 0.34 0 0 Z " fill="#554A52" transform="translate(348,688)"/>
<path d="M0 0 C0.33 0 0.66 0 1 0 C1.08119503 2.24940295 1.13927819 4.49964871 1.1875 6.75 C1.22230469 8.00296875 1.25710938 9.2559375 1.29296875 10.546875 C0.98802939 14.14109357 0.45605371 15.44725126 -2 18 C-1.42085333 11.98673249 -0.77662055 5.99107278 0 0 Z " fill="#341D22" transform="translate(715,475)"/>
<path d="M0 0 C1.98 0 3.96 0 6 0 C6.33 0.66 6.66 1.32 7 2 C10.02934491 2.65772428 10.02934491 2.65772428 13 3 C13 3.33 13 3.66 13 4 C8.07872966 4.16682272 4.49656104 4.24828052 0 2 C0 1.34 0 0.68 0 0 Z " fill="#362633" transform="translate(385,878)"/>
<path d="M0 0 C0 3.58784961 -0.88385822 4.70021279 -2.875 7.625 C-3.40867187 8.42164063 -3.94234375 9.21828125 -4.4921875 10.0390625 C-6 12 -6 12 -8 13 C-8 11.68 -8 10.36 -8 9 C-7.01 9 -6.02 9 -5 9 C-4.731875 8.071875 -4.46375 7.14375 -4.1875 6.1875 C-3.08851629 3.23759634 -2.37581439 1.94384814 0 0 Z " fill="#5C565D" transform="translate(102,551)"/>
<path d="M0 0 C0.66 0.99 1.32 1.98 2 3 C0.84826645 5.46800047 -0.04783565 7.04783565 -2 9 C-4.125 8.625 -4.125 8.625 -6 8 C-5.38125 7.4225 -4.7625 6.845 -4.125 6.25 C-2.18652947 4.19750179 -1.09985751 2.56633418 0 0 Z " fill="#21131A" transform="translate(439,492)"/>
<path d="M0 0 C0 1.32 0 2.64 0 4 C-3.37503669 2.8141763 -5.64722731 1.72426311 -8 -1 C-4.37673261 -2.2077558 -3.35853631 -1.54311128 0 0 Z " fill="#190E13" transform="translate(800,384)"/>
<path d="M0 0 C0.68835938 0.55880859 0.68835938 0.55880859 1.390625 1.12890625 C2.00421875 1.60199219 2.6178125 2.07507813 3.25 2.5625 C3.85328125 3.03816406 4.4565625 3.51382813 5.078125 4.00390625 C6.97811554 5.22889098 6.97811554 5.22889098 9.234375 4.65234375 C10.10835937 4.32943359 10.10835937 4.32943359 11 4 C9.37660195 5.70884005 7.70680947 7.37446717 6 9 C5.34 9 4.68 9 4 9 C3.566875 7.88625 3.566875 7.88625 3.125 6.75 C2.17697356 4.43260203 1.15154089 2.22082885 0 0 Z " fill="#453A47" transform="translate(135,192)"/>
<path d="M0 0 C0.66 0.33 1.32 0.66 2 1 C1.34 1.66 0.68 2.32 0 3 C0.33 3.66 0.66 4.32 1 5 C0.01 5.495 0.01 5.495 -1 6 C-0.67 6.66 -0.34 7.32 0 8 C-2.86724686 7.42655063 -3.8614515 7.1385485 -6 5 C-4.02 3.35 -2.04 1.7 0 0 Z " fill="#1F151A" transform="translate(88,186)"/>
<path d="M0 0 C0.66 0.33 1.32 0.66 2 1 C0.73548068 2.31858428 -0.53685475 3.62967631 -1.8125 4.9375 C-2.52019531 5.66839844 -3.22789062 6.39929688 -3.95703125 7.15234375 C-6 9 -6 9 -9 10 C-7.61811547 6.78956118 -6.07578097 4.95063635 -3.375 2.75 C-2.74335938 2.22921875 -2.11171875 1.7084375 -1.4609375 1.171875 C-0.73777344 0.59179688 -0.73777344 0.59179688 0 0 Z " fill="#3B2634" transform="translate(212,140)"/>
<path d="M0 0 C0.33 0 0.66 0 1 0 C1 3.96 1 7.92 1 12 C-0.32 12.33 -1.64 12.66 -3 13 C-2.01 8.71 -1.02 4.42 0 0 Z " fill="#281419" transform="translate(711,499)"/>
<path d="M0 0 C-0.375 1.9375 -0.375 1.9375 -1 4 C-1.99 4.495 -1.99 4.495 -3 5 C-3 4.01 -3 3.02 -3 2 C-4.32 2.33 -5.64 2.66 -7 3 C-7 2.01 -7 1.02 -7 0 C-4.3333581 -1.33332095 -2.83319697 -0.67102033 0 0 Z " fill="#110D0F" transform="translate(113,501)"/>
<path d="M0 0 C0.75 1.6875 0.75 1.6875 1 4 C-1.13381449 7.2769294 -2.25018012 8.75006004 -6 10 C-4.6302836 6.00499382 -2.74277578 3.19990508 0 0 Z " fill="#231419" transform="translate(565,283)"/>
<path d="M0 0 C0.66 0.33 1.32 0.66 2 1 C2 1.66 2 2.32 2 3 C3.65 3.33 5.3 3.66 7 4 C7 4.66 7 5.32 7 6 C3.37 5.01 -0.26 4.02 -4 3 C-2.68 2.01 -1.36 1.02 0 0 Z " fill="#2D191E" transform="translate(465,190)"/>
<path d="M0 0 C0 0.99 0 1.98 0 3 C-0.99 3.66 -1.98 4.32 -3 5 C-1.68 5.66 -0.36 6.32 1 7 C-0.98 7.33 -2.96 7.66 -5 8 C-5 6.68 -5 5.36 -5 4 C-2.5 1.75 -2.5 1.75 0 0 Z " fill="#514552" transform="translate(193,813)"/>
<path d="M0 0 C2.12038635 2.61514317 4.13091744 5.19637616 6 8 C5.01 8.33 4.02 8.66 3 9 C1.35 6.69 -0.3 4.38 -2 2 C-1.34 2 -0.68 2 0 2 C0 1.34 0 0.68 0 0 Z " fill="#24151F" transform="translate(460,804)"/>
<path d="M0 0 C4.2742558 1.5830577 6.26531794 4.50568404 9 8 C6 8 6 8 3.9375 6.25 C2.18087969 4.21005384 1.0536395 2.45849217 0 0 Z " fill="#30232E" transform="translate(739,736)"/>
<path d="M0 0 C0.33 0.66 0.66 1.32 1 2 C3.64 1.67 6.28 1.34 9 1 C5.79663178 3.83374881 3.21912747 4.5205537 -1 5 C-0.67 3.35 -0.34 1.7 0 0 Z " fill="#433440" transform="translate(690,706)"/>
<path d="M0 0 C2.67927341 4.01891012 2.15601248 6.24161923 2 11 C0 10 0 10 -0.703125 8.22265625 C-0.88359375 7.50980469 -1.0640625 6.79695313 -1.25 6.0625 C-1.44078125 5.35222656 -1.6315625 4.64195312 -1.828125 3.91015625 C-1.88484375 3.27980469 -1.9415625 2.64945312 -2 2 C-1.34 1.34 -0.68 0.68 0 0 Z " fill="#8E8289" transform="translate(87,395)"/>
<path d="M0 0 C0.66 0.99 1.32 1.98 2 3 C-0.31 4.98 -2.62 6.96 -5 9 C-5.66 8.67 -6.32 8.34 -7 8 C-4.69 5.36 -2.38 2.72 0 0 Z " fill="#24151C" transform="translate(529,349)"/>
<path d="M0 0 C0.66 0.33 1.32 0.66 2 1 C-2.14285714 7.42857143 -2.14285714 7.42857143 -5 10 C-5.66 9.34 -6.32 8.68 -7 8 C-4.69 5.36 -2.38 2.72 0 0 Z " fill="#28161D" transform="translate(577,269)"/>
<path d="M0 0 C0 3.80345877 -1.13786331 4.77701015 -3.5 7.6875 C-4.47453125 8.89986328 -4.47453125 8.89986328 -5.46875 10.13671875 C-5.9740625 10.75160156 -6.479375 11.36648437 -7 12 C-7 8.63667486 -6.39455845 7.64696728 -4.625 4.875 C-4.18414062 4.17117187 -3.74328125 3.46734375 -3.2890625 2.7421875 C-2 1 -2 1 0 0 Z " fill="#625763" transform="translate(108,243)"/>
<path d="M0 0 C0.33 0.66 0.66 1.32 1 2 C1.66 2.33 2.32 2.66 3 3 C2.34 3 1.68 3 1 3 C1 3.66 1 4.32 1 5 C-1.5 6.625 -1.5 6.625 -4 8 C-3.50168276 4.31245243 -2.89932357 2.39509338 0 0 Z " fill="#1C0F17" transform="translate(278,133)"/>
<path d="M0 0 C-0.99 0.495 -0.99 0.495 -2 1 C-1.34 2.65 -0.68 4.3 0 6 C-3.37503669 4.8141763 -5.64722731 3.72426311 -8 1 C-5.07175348 0.02391783 -3.04386724 -0.08226668 0 0 Z " fill="#1C0E11" transform="translate(692,405)"/>
<path d="M0 0 C1.4540625 0.0309375 1.4540625 0.0309375 2.9375 0.0625 C2.9375 0.7225 2.9375 1.3825 2.9375 2.0625 C1.6175 2.0625 0.2975 2.0625 -1.0625 2.0625 C-1.7225 3.7125 -2.3825 5.3625 -3.0625 7.0625 C-3.7225 6.4025 -4.3825 5.7425 -5.0625 5.0625 C-4.45789299 1.07209375 -4.2025713 0.08576676 0 0 Z " fill="#4C3940" transform="translate(350.0625,224.9375)"/>
<path d="M0 0 C0.33 0.99 0.66 1.98 1 3 C-0.4375 5.6875 -0.4375 5.6875 -2 8 C-1.34 8.66 -0.68 9.32 0 10 C-1.32 10.33 -2.64 10.66 -4 11 C-4.33 10.34 -4.66 9.68 -5 9 C-4.00390625 6.8359375 -4.00390625 6.8359375 -2.5625 4.375 C-2.08941406 3.55773437 -1.61632812 2.74046875 -1.12890625 1.8984375 C-0.75636719 1.27195312 -0.38382812 0.64546875 0 0 Z " fill="#291928" transform="translate(327,81)"/>
<path d="M0 0 C0.93065133 2.60582371 1.14917407 3.64198224 0.0625 6.25 C-0.4634375 7.11625 -0.4634375 7.11625 -1 8 C-1.66 7.67 -2.32 7.34 -3 7 C-2.625 4.0625 -2.625 4.0625 -2 1 C-1.34 0.67 -0.68 0.34 0 0 Z " fill="#030303" transform="translate(55,751)"/>
<path d="M0 0 C0 3.55816066 -0.83264416 4.31247876 -3 7 C-3.33 7.66 -3.66 8.32 -4 9 C-4.99 9 -5.98 9 -7 9 C-5.44499019 5.18315774 -2.96404505 2.80804268 0 0 Z " fill="#2E191F" transform="translate(528,592)"/>
<path d="M0 0 C0 3.20395416 -0.74335022 5.09399739 -2 8 C-3.65 8 -5.3 8 -7 8 C-5.625 6 -5.625 6 -4 4 C-3.34 4 -2.68 4 -2 4 C-1.34 2.68 -0.68 1.36 0 0 Z " fill="#29151C" transform="translate(395,522)"/>
<path d="M0 0 C0.33 0.99 0.66 1.98 1 3 C0.34 3 -0.32 3 -1 3 C-0.67 2.01 -0.34 1.02 0 0 Z M-4 1 C-3.34 1 -2.68 1 -2 1 C-1.67 3.31 -1.34 5.62 -1 8 C-1.99 7.67 -2.98 7.34 -4 7 C-4 5.02 -4 3.04 -4 1 Z " fill="#040102" transform="translate(551,491)"/>
<path d="M0 0 C1.32 0 2.64 0 4 0 C3.67 0.66 3.34 1.32 3 2 C2.34 1.67 1.68 1.34 1 1 C0.34 3.64 -0.32 6.28 -1 9 C-1.66 8.67 -2.32 8.34 -3 8 C-2.45276317 4.62537285 -1.9451 2.91765 0 0 Z " fill="#71606D" transform="translate(505,310)"/>
<path d="M0 0 C-1.6875 2.0625 -1.6875 2.0625 -4 4 C-6.75 3.75 -6.75 3.75 -9 3 C-6.38220849 -0.01046024 -3.86655673 -1.93327837 0 0 Z " fill="#020101" transform="translate(438,61)"/>
<path d="M0 0 C0.33 0.66 0.66 1.32 1 2 C0.67 2.66 0.34 3.32 0 4 C-0.99 4 -1.98 4 -3 4 C-3 5.65 -3 7.3 -3 9 C-3.99 8.67 -4.98 8.34 -6 8 C-5.8125 5.6875 -5.8125 5.6875 -5 3 C-2.4375 1.1875 -2.4375 1.1875 0 0 Z " fill="#020101" transform="translate(379,47)"/>
<path d="M0 0 C1.65 1.65 3.3 3.3 5 5 C4.67 5.99 4.34 6.98 4 8 C1.525 7.01 1.525 7.01 -1 6 C-0.34 5.67 0.32 5.34 1 5 C0.67 3.35 0.34 1.7 0 0 Z " fill="#413340" transform="translate(781,725)"/>
<path d="M0 0 C0.66 0.66 1.32 1.32 2 2 C1.34 3.32 0.68 4.64 0 6 C-0.66 6 -1.32 6 -2 6 C-2.99 6.495 -2.99 6.495 -4 7 C-4.33 5.68 -4.66 4.36 -5 3 C-4.360625 2.690625 -3.72125 2.38125 -3.0625 2.0625 C-1.06389179 1.1654837 -1.06389179 1.1654837 0 0 Z " fill="#030202" transform="translate(624,289)"/>
<path d="M0 0 C2.4375 0.75 2.4375 0.75 5 2 C5.8125 4.125 5.8125 4.125 6 6 C4.68 5.67 3.36 5.34 2 5 C2 4.34 2 3.68 2 3 C1.34 3 0.68 3 0 3 C0 2.01 0 1.02 0 0 Z M2 6 C4 7 4 7 4 7 Z " fill="#030000" transform="translate(308,259)"/>
<path d="M0 0 C0.33 0 0.66 0 1 0 C1.33 2.31 1.66 4.62 2 7 C-0.31 6.34 -2.62 5.68 -5 5 C-4.01 4.01 -3.02 3.02 -2 2 C-1.67 2.33 -1.34 2.66 -1 3 C-0.67 2.01 -0.34 1.02 0 0 Z " fill="#040101" transform="translate(352,219)"/>
<path d="M0 0 C3.08089673 2.77280706 4.68775452 5.06326356 6 9 C4.35 8.67 2.7 8.34 1 8 C1.020625 7.236875 1.04125 6.47375 1.0625 5.6875 C1.12942841 2.89814214 1.12942841 2.89814214 0 0 Z " fill="#372428" transform="translate(453,194)"/>
<path d="M0 0 C0.99 0.33 1.98 0.66 3 1 C2.67 1.66 2.34 2.32 2 3 C1.01 3 0.02 3 -1 3 C-1 3.66 -1 4.32 -1 5 C-2.32 4.67 -3.64 4.34 -5 4 C-2.6875 1.9375 -2.6875 1.9375 0 0 Z " fill="#020000" transform="translate(478,868)"/>
<path d="M0 0 C0.99 0.33 1.98 0.66 3 1 C3.33 2.98 3.66 4.96 4 7 C3.01 7 2.02 7 1 7 C0.67 4.69 0.34 2.38 0 0 Z " fill="#030102" transform="translate(85,782)"/>
<path d="M0 0 C-1.98 0.99 -1.98 0.99 -4 2 C-4 2.99 -4 3.98 -4 5 C-7.875 3.25 -7.875 3.25 -9 1 C-6.04335481 -0.4783226 -3.25770263 -0.06032783 0 0 Z " fill="#412D39" transform="translate(446,776)"/>
<path d="M0 0 C2.97 0.33 5.94 0.66 9 1 C9 1.99 9 2.98 9 4 C2.25 3.125 2.25 3.125 0 2 C0 1.34 0 0.68 0 0 Z " fill="#050101" transform="translate(315,550)"/>
<path d="M0 0 C2.475 0.99 2.475 0.99 5 2 C5.33 4.64 5.66 7.28 6 10 C3.47650757 6.87567603 1.72743854 3.61939504 0 0 Z " fill="#44353B" transform="translate(785,379)"/>
<path d="M0 0 C2.0625 0.4375 2.0625 0.4375 4 1 C1.63707344 3.52588702 0.33537489 4.88820837 -3 6 C-1.125 1.125 -1.125 1.125 0 0 Z " fill="#1C0F15" transform="translate(533,343)"/>
<path d="M0 0 C0.33 0.66 0.66 1.32 1 2 C0.22265625 4.1640625 0.22265625 4.1640625 -0.9375 6.625 C-1.31777344 7.44226563 -1.69804688 8.25953125 -2.08984375 9.1015625 C-2.39019531 9.72804688 -2.69054687 10.35453125 -3 11 C-3.33 11 -3.66 11 -4 11 C-3.67 8.69 -3.34 6.38 -3 4 C-2.34 4 -1.68 4 -1 4 C-0.67 2.68 -0.34 1.36 0 0 Z " fill="#3B262B" transform="translate(593,281)"/>
<path d="M0 0 C2.64 0 5.28 0 8 0 C8 1.32 8 2.64 8 4 C5.64828869 3.40138258 3.3140622 2.73075648 1 2 C0.67 1.34 0.34 0.68 0 0 Z " fill="#4C3B49" transform="translate(701,255)"/>
<path d="M0 0 C4.455 0.99 4.455 0.99 9 2 C9 2.33 9 2.66 9 3 C5.37 3 1.74 3 -2 3 C-1.34 2.01 -0.68 1.02 0 0 Z " fill="#050000" transform="translate(205,219)"/>
<path d="M0 0 C0.99 0.66 1.98 1.32 3 2 C2.67 2.66 2.34 3.32 2 4 C-1.0625 4.625 -1.0625 4.625 -4 5 C-3.6875 3.0625 -3.6875 3.0625 -3 1 C-2.01 0.67 -1.02 0.34 0 0 Z " fill="#120E11" transform="translate(309,68)"/>
<path d="M0 0 C0.33 0 0.66 0 1 0 C1 2.97 1 5.94 1 9 C1.99 9.33 2.98 9.66 4 10 C2.02 10.99 2.02 10.99 0 12 C0 8.04 0 4.08 0 0 Z " fill="#4E3C48" transform="translate(382,414)"/>
<path d="M0 0 C-1.04874998 2.62187494 -1.64931313 3.79371361 -4.125 5.25 C-4.74375 5.4975 -5.3625 5.745 -6 6 C-3.84615385 0 -3.84615385 0 0 0 Z " fill="#332433" transform="translate(7,407)"/>
<path d="M0 0 C2 3 2 3 1.75 5.0625 C1 7 1 7 -1 9 C-1.09765625 2.84765625 -1.09765625 2.84765625 -1 1 C-0.67 0.67 -0.34 0.34 0 0 Z " fill="#1F0F15" transform="translate(491,368)"/>
<path d="M0 0 C1.125 3.75 1.125 3.75 0 6 C-1.32 5.67 -2.64 5.34 -4 5 C-3 2 -3 2 0 0 Z " fill="#030101" transform="translate(534,346)"/>
<path d="M0 0 C0.53625 0.226875 1.0725 0.45375 1.625 0.6875 C-0.685 2.0075 -2.995 3.3275 -5.375 4.6875 C-6.365 4.0275 -7.355 3.3675 -8.375 2.6875 C-2.95961538 -0.38942308 -2.95961538 -0.38942308 0 0 Z " fill="#1F0E12" transform="translate(301.375,329.3125)"/>
<path d="M0 0 C0.99 0 1.98 0 3 0 C2.67 1.65 2.34 3.3 2 5 C1.01 5 0.02 5 -1 5 C-1.33 4.01 -1.66 3.02 -2 2 C-1.34 1.34 -0.68 0.68 0 0 Z " fill="#160C0D" transform="translate(581,303)"/>
<path d="M0 0 C-0.75 4.75 -0.75 4.75 -3 7 C-3.66 5.02 -4.32 3.04 -5 1 C-2 0 -2 0 0 0 Z " fill="#010101" transform="translate(208,292)"/>
<path d="M0 0 C0 3 0 3 -2.5 5.6875 C-3.325 6.450625 -4.15 7.21375 -5 8 C-5.66 7.34 -6.32 6.68 -7 6 C-4.69 4.02 -2.38 2.04 0 0 Z " fill="#2C1C26" transform="translate(626,285)"/>
<path d="M0 0 C0.33 0.66 0.66 1.32 1 2 C-0.98 2 -2.96 2 -5 2 C-4.67 2.99 -4.34 3.98 -4 5 C-5.32 4.34 -6.64 3.68 -8 3 C-5.53387212 -0.1151089 -3.89156016 -0.31553191 0 0 Z " fill="#030101" transform="translate(233,134)"/>
<path d="M0 0 C0.66 0.33 1.32 0.66 2 1 C4.09821215 0.60061233 4.09821215 0.60061233 6 0 C3.88229834 2.32947183 1.96664412 3.88750845 -1 5 C-1.99 4.67 -2.98 4.34 -4 4 C-2.68 2.68 -1.36 1.36 0 0 Z " fill="#412B3D" transform="translate(383,78)"/>
<path d="M0 0 C2.97 0.99 5.94 1.98 9 3 C9 3.66 9 4.32 9 5 C5.65626525 4.44271087 2.96687001 3.64826111 0 2 C0 1.34 0 0.68 0 0 Z " fill="#251218" transform="translate(313,547)"/>
<path d="M0 0 C1 3 1 3 1 6 C-3.875 4.25 -3.875 4.25 -5 2 C-3.35 2 -1.7 2 0 2 C0 1.34 0 0.68 0 0 Z " fill="#181218" transform="translate(43,469)"/>
<path d="M0 0 C2.25 0.25 2.25 0.25 4 1 C2.8125 2.5 2.8125 2.5 1 4 C-1.6875 4.1875 -1.6875 4.1875 -4 4 C-2.25 1.9375 -2.25 1.9375 0 0 Z " fill="#1E1014" transform="translate(245,361)"/>
<path d="M0 0 C0.66 0 1.32 0 2 0 C1.67 1.98 1.34 3.96 1 6 C0.01 4.68 -0.98 3.36 -2 2 C-1.34 1.34 -0.68 0.68 0 0 Z M-3 4 C-2.01 4.495 -2.01 4.495 -1 5 C-1.99 5.495 -1.99 5.495 -3 6 C-3 5.34 -3 4.68 -3 4 Z " fill="#160F10" transform="translate(430,332)"/>
<path d="M0 0 C0.66 0 1.32 0 2 0 C0.125 5.75 0.125 5.75 -1 8 C-1.66 8 -2.32 8 -3 8 C-1.125 2.25 -1.125 2.25 0 0 Z " fill="#251419" transform="translate(550,307)"/>
<path d="M0 0 C0.99 0.33 1.98 0.66 3 1 C3 1.66 3 2.32 3 3 C2.01 3 1.02 3 0 3 C-0.33 3.99 -0.66 4.98 -1 6 C-1.66 5.01 -2.32 4.02 -3 3 C-2.01 2.01 -1.02 1.02 0 0 Z " fill="#010001" transform="translate(606,248)"/>
<path d="M0 0 C0 0.66 0 1.32 0 2 C-2.31 2.33 -4.62 2.66 -7 3 C-6.67 2.01 -6.34 1.02 -6 0 C-3.50907189 -1.24546405 -2.58919267 -0.7767578 0 0 Z " fill="#26181D" transform="translate(431,136)"/>
</svg>
